<?xml version="1.0" encoding="UTF-8" standalone="no"?>
<!-- Generator: Adobe Illustrator 16.0.0, SVG Export Plug-In . SVG Version: 6.00 Build 0)  -->

<svg
   version="1.1"
   id="Layer_1"
   x="0px"
   y="0px"
   width="354.41254"
   height="99.33049"
   viewBox="0 0 354.41255 99.33049"
   enable-background="new 0 0 106.868 122.4"
   xml:space="preserve"
   sodipodi:docname="Benchmark-Logo.svg"
   inkscape:version="1.2 (dc2aedaf03, 2022-05-15)"
   xmlns:inkscape="http://www.inkscape.org/namespaces/inkscape"
   xmlns:sodipodi="http://sodipodi.sourceforge.net/DTD/sodipodi-0.dtd"
   xmlns="http://www.w3.org/2000/svg"
   xmlns:svg="http://www.w3.org/2000/svg"><defs
   id="defs1530"><inkscape:path-effect
     effect="powerclip"
     id="path-effect8607"
     is_visible="true"
     lpeversion="1"
     inverse="true"
     flatten="false"
     hide_clip="false"
     message="Use fill-rule evenodd on &lt;b&gt;fill and stroke&lt;/b&gt; dialog if no flatten result after convert clip to paths." /><inkscape:path-effect
     effect="powerclip"
     id="path-effect7810"
     is_visible="true"
     lpeversion="1"
     inverse="true"
     flatten="false"
     hide_clip="false"
     message="Use fill-rule evenodd on &lt;b&gt;fill and stroke&lt;/b&gt; dialog if no flatten result after convert clip to paths." /><inkscape:path-effect
     effect="powermask"
     id="path-effect7789"
     is_visible="true"
     lpeversion="1"
     uri="#mask-powermask-path-effect7789"
     invert="false"
     hide_mask="false"
     background="false"
     background_color="#ffffffff" /><inkscape:path-effect
     effect="powermask"
     id="path-effect7784"
     is_visible="true"
     lpeversion="1"
     uri="#mask-powermask-path-effect7784"
     invert="false"
     hide_mask="false"
     background="false"
     background_color="#ffffffff" /><clipPath
     clipPathUnits="userSpaceOnUse"
     id="clipPath8595"><g
       id="g8605"
       transform="translate(-0.99999994,-2)"
       mask="none"
       style="display:none">
	<path
   fill="#007c3f"
   d="M 15.798,61.687 C 10.854,67.502 1,81.034 1,81.034 10.083,64.007 22.243,48.853 36.998,36.17 c 0.505,1.095 0.951,2.063 1.398,3.032 0,-0.002 -15.688,14.358 -22.598,22.485"
   id="path8597" />
	<polygon
   fill="#007c3f"
   points="44.51,17.834 42.574,28.445 29.649,11.905 "
   id="polygon8599"
   d="M 44.51,17.834 42.574,28.445 29.649,11.905 Z" />
	<path
   fill="#007c3f"
   d="M 39.509,30.67 C 37.615,30.443 36.056,30.257 34.375,30.055 31.612,24.186 24.923,10.023 25,9.976 25.088,9.922 35.07,24.306 39.509,30.67"
   id="path8601" />
	<polygon
   fill="#007c3f"
   points="55.953,22.403 45.981,29.063 47.593,19.062 "
   id="polygon8603"
   d="m 55.953,22.403 -9.972,6.66 1.612,-10.001 z" />
</g><path
       id="lpe_path-effect8607"
       style="display:block"
       class="powerclip"
       d="M -8.2506334,-8.2499682 H 495.90098 V 140.24492 H -8.2506334 Z M 15.798,61.687 C 22.708,53.56 38.396,39.2 38.396,39.202 37.949,38.233 37.503,37.265 36.998,36.17 22.243,48.853 10.083,64.007 1,81.034 c 0,0 9.854,-13.532 14.798,-19.347 M 44.51,17.834 29.649,11.905 42.574,28.445 Z M 39.509,30.67 C 35.07,24.306 25.088,9.922 25,9.976 c -0.077,0.047 6.612,14.21 9.375,20.079 1.681,0.202 3.24,0.388 5.134,0.615 m 16.444,-8.267 -8.36,-3.341 -1.612,10.001 z" /></clipPath></defs><sodipodi:namedview
   id="namedview1528"
   pagecolor="#ffffff"
   bordercolor="#000000"
   borderopacity="0.24705882"
   inkscape:showpageshadow="2"
   inkscape:pageopacity="0.0"
   inkscape:pagecheckerboard="0"
   inkscape:deskcolor="#d1d1d1"
   showgrid="false"
   inkscape:zoom="0.78079963"
   inkscape:cx="105.66091"
   inkscape:cy="96.055373"
   inkscape:window-width="1366"
   inkscape:window-height="697"
   inkscape:window-x="-8"
   inkscape:window-y="-8"
   inkscape:window-maximized="1"
   inkscape:current-layer="layer4"
   showguides="false" />




<g
   inkscape:groupmode="layer"
   id="layer2"
   inkscape:label="BG"
   style="fill:#111111;fill-opacity:1"
   transform="translate(-0.08865856,-0.23709605)"><path
     style="fill:#111111;fill-opacity:1;stroke:#000000"
     d="m 191.43333,96.617256 v 0.0027 c -0.237,0.34 -0.69161,0.58499 -1.36161,0.73799 -0.66999,0.156 -1.26081,0.261062 -1.77281,0.324062 -1.57599,0.214 -3.20054,0.409321 -4.87454,0.577321 -1.675,0.169 -3.19872,0.422776 -4.57772,0.759775 -1.379,0.339 -2.51257,0.824195 -3.39856,1.454196 -0.887,0.631 -1.32893,1.53143 -1.32893,2.70143 0,0.737 0.18698,1.39171 0.56098,1.96071 0.375,0.568 0.87766,1.0637 1.50866,1.4787 0.629,0.415 1.35801,0.73096 2.18401,0.94496 0.827,0.21499 1.67376,0.32406 2.54076,0.32406 1.419,0 2.77765,-0.16824 4.07664,-0.50924 1.3,-0.338 2.43257,-0.83071 3.39857,-1.47871 0.965,-0.646 1.73184,-1.42885 2.30384,-2.35285 0.57,-0.924 0.85781,-1.96986 0.85781,-3.13986 v -3.785267 z"
     id="path8593"
     transform="matrix(0.71721414,0,0,0.71721414,2.4200588,2.5680192)" /><path
     style="fill:#111111;fill-opacity:1;stroke:#000000"
     d="m 389.65309,87.570751 c -1.536,0 -2.89565,0.240205 -4.07664,0.716204 -1.182,0.48 -2.18388,1.109355 -3.01188,1.895355 -0.82699,0.784999 -1.48677,1.688488 -1.97977,2.720487 -0.492,1.030999 -0.81591,2.086371 -0.97491,3.16437 h 19.73238 c -0.036,-1.108999 -0.28126,-2.171157 -0.73526,-3.186156 -0.453,-1.017999 -1.09187,-1.913702 -1.91987,-2.698701 -0.827,-0.785 -1.83431,-1.414355 -3.01731,-1.895355 -1.18,-0.475999 -2.51974,-0.716204 -4.01674,-0.716204 z"
     id="path8591"
     transform="matrix(0.71721414,0,0,0.71721414,2.4200588,2.5680192)" /><path
     style="fill:#111111;fill-opacity:1;stroke:#000000"
     d="m 244.42973,87.570751 c -1.537,0 -2.89737,0.240205 -4.07937,0.716204 -1.181,0.48 -2.18587,1.109355 -3.01187,1.895355 -0.828,0.784999 -1.48778,1.688488 -1.97978,2.720487 -0.493,1.030999 -0.81691,2.086371 -0.97491,3.16437 h 19.73511 c -0.039,-1.108999 -0.28499,-2.171157 -0.73799,-3.186156 -0.453,-1.017999 -1.09386,-1.913702 -1.91986,-2.698701 -0.828,-0.785 -1.8326,-1.414355 -3.0146,-1.895355 -1.182,-0.475999 -2.52073,-0.716204 -4.01673,-0.716204 z"
     id="path8589"
     transform="matrix(0.71721414,0,0,0.71721414,2.4200588,2.5680192)" /><path
     style="fill:#111111;fill-opacity:1;stroke:#000000"
     d="m 153.14499,87.570751 c -2.049,0 -3.7607,0.280303 -5.1387,0.833302 -1.37999,0.554 -2.48242,1.290971 -3.31142,2.21397 -0.827,0.923999 -1.40785,2.001452 -1.74285,3.232451 -0.335,1.228999 -0.50108,2.521853 -0.50108,3.877852 0,1.229998 0.18599,2.455164 0.56099,3.668164 0.374,1.216 0.98572,2.30024 1.83272,3.25424 0.848,0.954 1.9517,1.73207 3.3087,2.33106 1.36,0.6 3.02164,0.90139 4.99164,0.90139 1.773,0 3.28676,-0.30239 4.54776,-0.90139 1.261,-0.59899 2.29646,-1.37706 3.10446,-2.33106 0.806,-0.954 1.39781,-2.03824 1.77281,-3.25424 0.374,-1.213 0.56098,-2.438166 0.56098,-3.668164 0,-1.230999 -0.18698,-2.453166 -0.56098,-3.668165 -0.375,-1.215999 -0.96681,-2.30296 -1.77281,-3.256959 -0.808,-0.953999 -1.84346,-1.731069 -3.10446,-2.331068 -1.261,-0.601 -2.77476,-0.901383 -4.54776,-0.901383 z"
     id="path8587"
     transform="matrix(0.71721414,0,0,0.71721414,2.4200588,2.5680192)" /><path
     style="fill:#111111;fill-opacity:1;stroke:none"
     d="M -2.7506334,-2.7499682 V 134.74492 H 490.40098 V -2.7499682 Z M 362.71509,78.66313 h 3.72263 v 7.153873 h 6.20348 v 2.448167 h -6.20348 v 16.06149 c 0,0.954 0.16507,1.70148 0.50107,2.23848 0.334,0.539 1.1708,0.84111 2.5108,0.90411 1.064,0 2.12861,-0.0466 3.19161,-0.14161 v 2.44545 c -0.553,0 -1.10399,0.0153 -1.65299,0.0463 -0.554,0.031 -1.10472,0.0463 -1.65571,0.0463 -2.48,0 -4.21634,-0.37513 -5.20134,-1.13013 -0.984,-0.754 -1.45607,-2.1454 -1.41607,-4.1774 V 88.26517 h -5.31843 v -2.448167 h 5.31843 z m -209.5701,6.462178 c 2.323,0 4.34242,0.341481 6.05642,1.018481 1.714,0.675999 3.14061,1.589997 4.28361,2.744996 1.144,1.152999 1.98776,2.493737 2.54076,4.016735 0.55,1.523999 0.82513,3.129807 0.82513,4.822806 0,1.690998 -0.27513,3.299804 -0.82513,4.822804 -0.553,1.522 -1.39676,2.86274 -2.54076,4.01674 -1.143,1.155 -2.56961,2.06321 -4.28361,2.72321 -1.714,0.662 -3.73342,0.99397 -6.05642,0.99397 -1.103,0 -2.20598,-0.10806 -3.30598,-0.32406 -1.10399,-0.216 -2.1305,-0.53547 -3.0745,-0.96947 -0.946,-0.43 -1.7818,-0.97158 -2.5108,-1.61758 -0.729,-0.646 -1.29067,-1.39727 -1.68567,-2.26027 h -0.1171 v 13.29472 h -3.72262 V 85.817003 h 3.42852 v 4.525976 h 0.1171 c 0.865,-1.661998 2.27542,-2.948067 4.22642,-3.856066 1.949,-0.906999 4.16363,-1.361605 6.64463,-1.361605 z m 30.90027,0 c 1.337,0 2.67674,0.102277 4.01674,0.302276 1.33899,0.199 2.54153,0.576133 3.60553,1.130133 1.063,0.553999 1.93066,1.331069 2.60066,2.331068 0.67,1.000999 1.00487,2.300639 1.00487,3.899637 v 12.646588 c 0,1.17 0.72601,1.75375 2.18401,1.75375 0.434,0 0.82688,-0.0615 1.18187,-0.18246 v 2.44272 c -0.43299,0.063 -0.81691,0.10961 -1.15191,0.14161 -0.335,0.028 -0.75802,0.0463 -1.26902,0.0463 -0.944,0 -1.70488,-0.10227 -2.27388,-0.30227 -0.572,-0.199 -1.01665,-0.48137 -1.33165,-0.85237 -0.315,-0.369 -0.52289,-0.80831 -0.62089,-1.31531 -0.099,-0.509 -0.14706,-1.06766 -0.14706,-1.68566 h -0.11709 c -0.671,0.76999 -1.35169,1.4543 -2.03969,2.0533 -0.689,0.601 -1.45583,1.10249 -2.30383,1.50049 -0.847,0.40099 -1.81078,0.70716 -2.89478,0.92316 -1.083,0.216 -2.37368,0.32407 -3.86968,0.32407 -1.419,0 -2.7505,-0.13215 -3.9895,-0.39215 -1.241,-0.261 -2.32279,-0.67723 -3.24879,-1.24723 -0.926,-0.569 -1.65474,-1.29067 -2.18674,-2.16767 -0.532,-0.878 -0.79518,-1.91708 -0.79518,-3.11808 0,-1.662 0.47007,-2.95991 1.41607,-3.896913 0.945,-0.938999 2.19559,-1.654613 3.75259,-2.148613 1.55399,-0.490999 3.30752,-0.835543 5.25852,-1.037543 1.94999,-0.199999 3.9276,-0.39232 5.93659,-0.57732 0.787,-0.06 1.47592,-0.13675 2.06692,-0.22875 0.591,-0.095 1.0847,-0.252732 1.4787,-0.484731 0.392,-0.23 0.697,-0.545678 0.915,-0.947678 0.216,-0.397999 0.32679,-0.924569 0.32679,-1.568569 0,-0.985999 -0.20689,-1.792658 -0.62089,-2.423657 -0.414,-0.631999 -0.98663,-1.132489 -1.71563,-1.500489 -0.729,-0.369 -1.57403,-0.622499 -2.53803,-0.762499 -0.966,-0.137 -2.00046,-0.206964 -3.10446,-0.206964 -2.362,0 -4.29355,0.437312 -5.78954,1.315311 -1.498,0.876999 -2.28303,2.285701 -2.36103,4.223699 h -3.72263 c 0.119,-1.384999 0.48997,-2.586085 1.12197,-3.600084 0.629,-1.017999 1.48671,-1.850461 2.57071,-2.494461 1.083,-0.646999 2.35177,-1.122686 3.80977,-1.429685 1.457,-0.309 3.07359,-0.462946 4.84459,-0.462946 z m 60.38447,0 c 2.44,0 4.52838,0.388642 6.26338,1.154641 1.731,0.770999 3.1397,1.775765 4.2237,3.022764 1.082,1.246998 1.86079,2.677504 2.33379,4.294503 0.474,1.615998 0.66994,3.253396 0.59094,4.915394 H 234.3838 c -0.001,1.046999 0.18699,2.13124 0.56099,3.25424 0.374,1.123 0.97849,2.13076 1.80548,3.02276 0.825,0.896 1.86797,1.63542 3.12897,2.21942 1.261,0.583 2.77649,0.87415 4.55049,0.87415 2.71699,0 4.8472,-0.55516 6.3832,-1.66116 1.535,-1.108 2.59888,-2.58539 3.18888,-4.43339 h 3.72263 c -0.788,2.709 -2.23552,4.80473 -4.34352,6.27973 -2.107,1.47799 -5.0922,2.21397 -8.95119,2.21397 -2.403,0 -4.48043,-0.33198 -6.23343,-0.99398 -1.752,-0.66 -3.18061,-1.56721 -4.28361,-2.72321 -1.104,-1.153 -1.92161,-2.49101 -2.45361,-4.01401 -0.532,-1.523 -0.7979,-3.131806 -0.7979,-4.822804 0,-1.569999 0.2659,-3.110567 0.7979,-4.618565 0.532,-1.506999 1.34961,-2.852522 2.45361,-4.038521 1.103,-1.182999 2.53161,-2.136372 4.28361,-2.859371 1.753,-0.722999 3.83043,-1.086561 6.23343,-1.086561 z m 145.22608,0 c 2.443,0 4.52939,0.388642 6.26339,1.154641 1.732,0.770999 3.1407,1.775765 4.2237,3.022764 1.084,1.246998 1.86251,2.677504 2.33651,4.294503 0.471,1.615998 0.66722,3.253396 0.58822,4.915394 h -23.45774 c 0,1.046999 0.18598,2.13124 0.56098,3.25424 0.374,1.123 0.97849,2.13076 1.80549,3.02276 0.827,0.896 1.86697,1.63542 3.12897,2.21942 1.261,0.583 2.77749,0.87415 4.55048,0.87415 2.718,0 4.84349,-0.55516 6.38049,-1.66116 1.53699,-1.108 2.6006,-2.58539 3.1916,-4.43339 h 3.7199 c -0.78799,2.709 -2.23279,4.80473 -4.34079,6.27973 -2.107,1.47799 -5.0912,2.21397 -8.9512,2.21397 -2.40199,0 -4.48143,-0.33198 -6.23342,-0.99398 -1.753,-0.66 -3.17989,-1.56721 -4.28089,-2.72321 -1.104,-1.153 -1.92261,-2.49101 -2.45361,-4.01401 -0.532,-1.523 -0.7979,-3.131806 -0.7979,-4.822804 0,-1.569999 0.2659,-3.110567 0.7979,-4.618565 0.531,-1.506999 1.34961,-2.852522 2.45361,-4.038521 1.102,-1.182999 2.52789,-2.136372 4.28089,-2.859371 1.75199,-0.722999 3.83143,-1.086561 6.23342,-1.086561 z m 31.4313,0 c 2.009,0 3.83048,0.388642 5.46548,1.154641 1.637,0.770999 2.72947,1.939497 3.28147,3.507495 0.904,-1.566998 2.24274,-2.735496 4.01674,-3.507495 1.77099,-0.766999 3.66345,-1.154641 5.67244,-1.154641 6.734,0 10.10311,2.784815 10.10311,8.354809 v 16.156803 h -3.72262 V 93.619001 c 0,-1.968998 -0.53281,-3.470468 -1.59581,-4.501467 -1.06399,-1.029999 -2.93554,-1.546783 -5.61253,-1.546783 -1.615,0 -2.95546,0.240205 -4.01946,0.716204 -1.063,0.48 -1.90876,1.116141 -2.54076,1.91714 -0.63,0.802 -1.07292,1.715997 -1.32892,2.744996 -0.257,1.031999 -0.38398,2.101943 -0.38398,3.207942 v 13.479887 h -3.72262 V 93.480117 c 0,-0.799999 -0.10707,-1.561774 -0.32407,-2.284773 -0.217,-0.721999 -0.57005,-1.353632 -1.06205,-1.892631 -0.494,-0.537 -1.15277,-0.959017 -1.97977,-1.269016 -0.828,-0.307 -1.8336,-0.462946 -3.0146,-0.462946 -1.57599,0 -2.94288,0.22691 -4.10387,0.66991 -1.163,0.446999 -2.10759,1.06306 -2.83759,1.84906 -0.729,0.781999 -1.27176,1.707506 -1.62576,2.769504 -0.354,1.061999 -0.53102,2.220988 -0.53102,3.482987 v 13.294708 h -3.72263 V 85.817003 h 3.42852 v 4.016736 h 0.17701 c 0.983,-1.478999 2.27268,-2.631201 3.86968,-3.461201 1.595,-0.828999 3.63361,-1.24723 6.11361,-1.24723 z m -299.37341,0.0027 c 1.535,0 2.96261,0.153946 4.28361,0.462946 1.32,0.307 2.47971,0.781686 3.48571,1.429685 1.004,0.645 1.79998,1.44515 2.39098,2.399149 0.59099,0.952999 0.92586,2.078336 1.00486,3.371334 h -3.71991 c -0.039,-0.892999 -0.27775,-1.670792 -0.71075,-2.333791 -0.434,-0.658999 -1.01386,-1.207373 -1.74286,-1.639373 -0.729,-0.428999 -1.5658,-0.743954 -2.5108,-0.944954 -0.946,-0.198 -1.94887,-0.302276 -3.01187,-0.302276 -0.826,0 -1.6648,0.06996 -2.5108,0.206964 -0.848,0.14 -1.62579,0.371419 -2.33379,0.694419 -0.709,0.323999 -1.28162,0.747016 -1.71562,1.269016 -0.432,0.524999 -0.64813,1.168926 -0.64813,1.938925 0,0.646 0.2069,1.192373 0.6209,1.639373 0.413,0.447 0.93484,0.824133 1.56584,1.130132 0.629,0.31 1.31792,0.564223 2.06692,0.765222 0.749,0.198 1.43764,0.360009 2.06964,0.482009 l 4.96169,0.876873 c 1.062,0.123 2.11665,0.345187 3.16164,0.667187 1.043,0.324 1.96696,0.74674 2.77496,1.271739 0.808,0.521 1.46677,1.169927 1.97977,1.938933 0.51,0.771 0.76795,1.67621 0.76795,2.72321 0,1.293 -0.37497,2.39425 -1.12197,3.30325 -0.749,0.908 -1.70382,1.64497 -2.86481,2.21397 -1.161,0.571 -2.4726,0.97772 -3.9296,1.22272 -1.458,0.246 -2.89656,0.37036 -4.31356,0.37036 -3.585,0 -6.492,-0.66322 -8.717,-1.98522 -2.224,-1.322 -3.49477,-3.44559 -3.80977,-6.36959 h 3.72263 c 0.159,1.969 1.07472,3.45617 2.74772,4.45517 1.674,1.001 3.75243,1.50049 6.23343,1.50049 0.907,0 1.84363,-0.0782 2.80763,-0.2342 0.964,-0.153 1.85981,-0.41428 2.6878,-0.78428 0.828,-0.369 1.50497,-0.83618 2.03697,-1.40518 0.532,-0.569 0.7979,-1.27032 0.7979,-2.10232 0,-0.70599 -0.18798,-1.29925 -0.56098,-1.77825 -0.375,-0.476 -0.87694,-0.87549 -1.50594,-1.19549 -0.629,-0.324 -1.34978,-0.596521 -2.15678,-0.811521 -0.809,-0.214999 -1.62489,-0.396812 -2.45089,-0.552811 l -4.78741,-0.83058 c -1.22199,-0.244999 -2.34561,-0.532088 -3.36861,-0.855088 -1.024,-0.321999 -1.91881,-0.723213 -2.68781,-1.198212 -0.76699,-0.479 -1.37076,-1.061748 -1.80276,-1.753748 -0.435,-0.692999 -0.64812,-1.549265 -0.64812,-2.565264 0,-1.199999 0.34309,-2.228845 1.03209,-3.090844 0.688,-0.861999 1.58753,-1.55281 2.69053,-2.077809 1.102,-0.522 2.33468,-0.907642 3.69268,-1.154641 1.36,-0.246 2.70669,-0.367634 4.04669,-0.367634 z m 93.29174,0 c 3.271,0 6.03535,0.679516 8.30034,2.031515 2.264,1.354999 3.61542,3.399119 4.04942,6.138116 h -3.72263 c -0.513,-1.786998 -1.45959,-3.186914 -2.83759,-4.201913 -1.37999,-1.016999 -3.30754,-1.524998 -5.78954,-1.524998 -1.771,0 -3.32858,0.295597 -4.66758,0.879597 -1.339,0.584999 -2.45166,1.355283 -3.33866,2.309282 -0.886,0.952999 -1.55501,2.038238 -2.00701,3.254237 -0.45399,1.214998 -0.6808,2.45346 -0.6808,3.714459 0,1.260998 0.22681,2.499467 0.6808,3.714457 0.452,1.216 1.12101,2.30297 2.00701,3.25696 0.887,0.954 1.99966,1.72529 3.33866,2.30929 1.339,0.583 2.89658,0.87687 4.66758,0.87687 1.143,0 2.22579,-0.17096 3.24879,-0.51196 1.023,-0.338 1.92976,-0.80818 2.71776,-1.40518 0.788,-0.603 1.43782,-1.31489 1.94982,-2.14589 0.511,-0.831 0.82868,-1.73921 0.94768,-2.72321 h 3.72263 c -0.513,2.892 -1.87437,5.14573 -4.07937,6.76173 -2.207,1.616 -5.04131,2.42366 -8.50731,2.42366 -2.324,0 -4.38152,-0.33197 -6.17352,-0.99397 -1.792,-0.66 -3.30053,-1.55898 -4.52053,-2.69598 -1.222,-1.14 -2.14767,-2.47295 -2.77767,-3.99495 -0.631,-1.524 -0.94496,-3.147106 -0.94496,-4.869104 0,-1.722998 0.31396,-3.346102 0.94496,-4.8691 0.63,-1.522999 1.55567,-2.853951 2.77767,-3.99495 1.22,-1.136999 2.72853,-2.047211 4.52053,-2.72321 1.792,-0.677 3.84952,-1.015758 6.17352,-1.015758 z m 73.91338,0 c 1.53599,0 2.96261,0.153946 4.28361,0.462946 1.31899,0.307 2.48071,0.781686 3.4857,1.429685 1.005,0.645 1.79998,1.44515 2.39098,2.399149 0.591,0.952999 0.92587,2.078336 1.00487,3.371334 h -3.71991 c -0.038,-0.892999 -0.27503,-1.670792 -0.70803,-2.333791 -0.435,-0.658999 -1.01658,-1.207373 -1.74558,-1.639373 -0.729,-0.428999 -1.5658,-0.743954 -2.5108,-0.944954 -0.946,-0.198 -1.94987,-0.302276 -3.01187,-0.302276 -0.827,0 -1.66552,0.06996 -2.51352,0.206964 -0.847,0.14 -1.62307,0.371419 -2.33107,0.694419 -0.709,0.323999 -1.28062,0.747016 -1.71562,1.269016 -0.433,0.524999 -0.64813,1.169926 -0.64813,1.938925 0,0.646 0.20689,1.192373 0.62089,1.639373 0.413,0.447 0.93585,0.825133 1.56585,1.130132 0.629,0.31 1.31792,0.564223 2.06692,0.765222 0.749,0.198 1.43791,0.360009 2.06691,0.482009 l 4.96169,0.876873 c 1.063,0.123 2.11765,0.345187 3.16165,0.667187 1.043,0.324 1.96968,0.74674 2.77767,1.271739 0.807,0.521 1.46506,1.169927 1.97706,1.938933 0.51199,0.771 0.77066,1.67621 0.77066,2.72321 0,1.293 -0.37396,2.39425 -1.12196,3.30325 -0.749,0.908 -1.70382,1.64497 -2.86482,2.21397 -1.163,0.571 -2.47459,0.97772 -3.92959,1.22272 -1.458,0.246 -2.89557,0.37036 -4.31356,0.37036 -3.585,0 -6.491,-0.66222 -8.717,-1.98522 -2.225,-1.322 -3.49477,-3.44559 -3.80977,-6.36959 h 3.72263 c 0.158,1.969 1.07372,3.45617 2.74772,4.45517 1.67399,1.001 3.7507,1.50049 6.2307,1.50049 0.906,0 1.84263,-0.0782 2.80763,-0.2342 0.964,-0.153 1.86253,-0.41428 2.69053,-0.78428 0.827,-0.368 1.50596,-0.83618 2.03696,-1.40518 0.532,-0.569 0.7979,-1.27032 0.7979,-2.10232 0,-0.70599 -0.18698,-1.29925 -0.56098,-1.77825 -0.375,-0.476 -0.87793,-0.87549 -1.50593,-1.19549 -0.631,-0.324 -1.35079,-0.596521 -2.15678,-0.811521 -0.809,-0.214999 -1.62662,-0.395812 -2.45362,-0.552811 l -4.78468,-0.83058 c -1.222,-0.244999 -2.34389,-0.532088 -3.36589,-0.855088 -1.02399,-0.321999 -1.92253,-0.723213 -2.69053,-1.198212 -0.767,-0.479 -1.36804,-1.061748 -1.80004,-1.753748 -0.436,-0.692999 -0.65085,-1.549265 -0.65085,-2.565264 0,-1.199999 0.34582,-2.228845 1.03482,-3.090844 0.688,-0.861999 1.58481,-1.55281 2.68781,-2.077809 1.102,-0.522 2.33295,-0.907642 3.68995,-1.154641 1.36,-0.246 2.70942,-0.367634 4.04942,-0.367634 z m 54.58947,0 c 1.536,0 2.96461,0.153946 4.28361,0.462946 1.32,0.307 2.48171,0.781686 3.48571,1.429685 1.004,0.645 1.8027,1.44515 2.3937,2.399149 0.592,0.952999 0.92487,2.078336 1.00487,3.371334 h -3.72263 c -0.038,-0.892999 -0.27231,-1.670792 -0.70531,-2.333791 -0.435,-0.658999 -1.01558,-1.207373 -1.74558,-1.639373 -0.729,-0.428999 -1.56308,-0.743954 -2.50808,-0.944954 -0.946,-0.198 -1.95059,-0.302276 -3.01459,-0.302276 -0.828,0 -1.6638,0.06996 -2.5108,0.206964 -0.847,0.14 -1.62752,0.371419 -2.33652,0.694419 -0.709,0.323999 -1.2799,0.747016 -1.7129,1.269016 -0.43499,0.524999 -0.64812,1.169926 -0.64812,1.938925 0,0.646 0.20689,1.192373 0.62089,1.639373 0.413,0.447 0.93413,0.825133 1.56313,1.130132 0.63099,0.31 1.32064,0.564223 2.06964,0.765222 0.74699,0.198 1.43791,0.360009 2.06691,0.482009 l 4.96169,0.876873 c 1.063,0.124 2.11765,0.345187 3.16165,0.667187 1.043,0.324 1.97067,0.74674 2.77767,1.271739 0.806,0.521 1.46678,1.169927 1.97978,1.938933 0.51,0.771 0.76794,1.67621 0.76794,2.72321 0,1.293 -0.37496,2.39425 -1.12196,3.30325 -0.749,0.908 -1.70454,1.64497 -2.86754,2.21397 -1.162,0.571 -2.47359,0.97772 -3.92959,1.22272 -1.458,0.246 -2.89285,0.37036 -4.31085,0.37036 -3.58399,0 -6.49099,-0.66222 -8.71699,-1.98522 -2.226,-1.322 -3.49477,-3.44559 -3.80977,-6.36959 h 3.72263 c 0.158,1.969 1.07099,3.45617 2.74499,4.45517 1.675,1.001 3.75516,1.50049 6.23615,1.50049 0.906,0 1.83991,-0.0782 2.80491,-0.2342 0.965,-0.153 1.86081,-0.41428 2.68781,-0.78428 0.826,-0.368 1.50868,-0.83618 2.03968,-1.40518 0.53,-0.569 0.7979,-1.27032 0.7979,-2.10232 0,-0.70599 -0.1897,-1.29925 -0.5637,-1.77825 -0.374,-0.476 -0.87694,-0.87549 -1.50594,-1.19549 -0.63,-0.324 -1.34878,-0.596521 -2.15678,-0.811521 -0.808,-0.214999 -1.62389,-0.395812 -2.45089,-0.552811 l -4.78468,-0.83058 c -1.223,-0.244999 -2.34461,-0.532088 -3.36861,-0.855088 -1.024,-0.322999 -1.91881,-0.723213 -2.68781,-1.198212 -0.767,-0.479 -1.36976,-1.061748 -1.80276,-1.753748 -0.434,-0.692999 -0.64813,-1.549265 -0.64813,-2.565264 0,-1.199999 0.3431,-2.228845 1.0321,-3.090844 0.69,-0.861999 1.58481,-1.55281 2.68781,-2.077809 1.102,-0.522 2.33367,-0.907642 3.69267,-1.154641 1.359,-0.246 2.70669,-0.367634 4.04669,-0.367634 z m 123.42679,0 c 1.536,0 2.96289,0.153946 4.28089,0.462946 1.31999,0.307 2.48171,0.781686 3.48571,1.429685 1.00499,0.645 1.8017,1.44515 2.3937,2.399149 0.591,0.952999 0.92686,2.078336 1.00486,3.371334 h -3.72263 c -0.036,-0.892999 -0.27231,-1.670792 -0.70531,-2.333791 -0.433,-0.658999 -1.01658,-1.207373 -1.74558,-1.639373 -0.728,-0.428999 -1.56107,-0.743954 -2.50807,-0.944954 -0.945,-0.198 -1.9516,-0.302276 -3.0146,-0.302276 -0.827,0 -1.6628,0.06996 -2.5108,0.206964 -0.848,0.14 -1.62579,0.370419 -2.33379,0.694419 -0.709,0.322999 -1.28062,0.747016 -1.71562,1.269016 -0.433,0.524999 -0.64812,1.169926 -0.64812,1.938925 0,0.646 0.20861,1.192373 0.62361,1.639373 0.413,0.447 0.93412,0.825133 1.56312,1.130132 0.629,0.31 1.31892,0.564223 2.06692,0.765222 0.749,0.198 1.43864,0.360009 2.06964,0.482009 l 4.96169,0.876873 c 1.062,0.124 2.11765,0.345187 3.16165,0.667187 1.043,0.324 1.96795,0.74674 2.77495,1.271739 0.809,0.521 1.46577,1.169927 1.97977,1.938933 0.509,0.771 0.76795,1.67621 0.76795,2.72321 0,1.293 -0.37497,2.39425 -1.12197,3.30325 -0.74799,0.908 -1.70481,1.64497 -2.86481,2.21397 -1.162,0.571 -2.47432,0.97772 -3.93232,1.22272 -1.457,0.246 -2.89284,0.37036 -4.31084,0.37036 -3.584,0 -6.491,-0.66222 -8.717,-1.98522 -2.225,-1.322 -3.49277,-3.44559 -3.80977,-6.36959 h 3.72263 c 0.157,1.969 1.07272,3.45617 2.74772,4.45517 1.674,1.001 3.74971,1.50049 6.2307,1.50049 0.906,0 1.84264,-0.0782 2.80763,-0.2342 0.964,-0.153 1.85981,-0.41428 2.68781,-0.78428 0.827,-0.368 1.50769,-0.83618 2.03969,-1.40518 0.532,-0.569 0.7979,-1.27032 0.7979,-2.10232 0,-0.70599 -0.19071,-1.29925 -0.56371,-1.77825 -0.376,-0.476 -0.87793,-0.87549 -1.50593,-1.19549 -0.631,-0.324 -1.34878,-0.596521 -2.15678,-0.811521 -0.807,-0.214999 -1.62489,-0.395812 -2.45089,-0.552811 l -4.78741,-0.83058 c -1.222,-0.244999 -2.34289,-0.532088 -3.36589,-0.855088 -1.02499,-0.321999 -1.9198,-0.723213 -2.6878,-1.198212 -0.769,-0.479 -1.36977,-1.061748 -1.80277,-1.753748 -0.434,-0.692999 -0.64812,-1.549265 -0.64812,-2.565264 0,-1.199999 0.34309,-2.228845 1.03209,-3.090844 0.688,-0.861999 1.58381,-1.55281 2.68781,-2.077809 1.102,-0.522 2.33468,-0.907642 3.69268,-1.154641 1.35799,-0.246 2.70841,-0.367634 4.04941,-0.367634 z M 302.51036,85.81698 h 3.95682 l 10.0432,20.31515 9.39508,-20.31515 h 3.72263 l -13.2348,27.42001 c -0.552,1.017 -1.0629,1.85325 -1.5359,2.51625 -0.47399,0.65999 -0.99312,1.18356 -1.56312,1.56856 -0.57,0.384 -1.24345,0.66058 -2.01245,0.83058 -0.768,0.169 -1.74101,0.25326 -2.92201,0.25326 -0.74699,-0.03 -1.32885,-0.0524 -1.74285,-0.0653 -0.414,-0.018 -0.77873,-0.0714 -1.09473,-0.1634 v -2.44816 c 0.434,0.062 0.85674,0.11739 1.27174,0.16339 0.415,0.046 0.83402,0.0681 1.26901,0.0681 0.827,0 1.50597,-0.0931 2.03697,-0.27504 0.531,-0.188 0.99383,-0.4395 1.38883,-0.7625 0.394,-0.322 0.72887,-0.71543 1.00487,-1.17643 0.274,-0.462 0.57077,-0.97028 0.88776,-1.52228 l 1.29898,-2.67963 z"
     transform="matrix(0.71721414,0,0,0.71721414,2.4200588,2.5680192)"
     id="rect7520"
     clip-path="url(#clipPath8595)"
     inkscape:path-effect="#path-effect8607"
     inkscape:original-d="M -2.7506334,-2.7499682 V 134.74492 H 490.40098 V -2.7499682 Z M 362.71509,78.66313 h 3.72263 v 7.153873 h 6.20348 v 2.448167 h -6.20348 v 16.06149 c 0,0.954 0.16507,1.70148 0.50107,2.23848 0.334,0.539 1.1708,0.84111 2.5108,0.90411 1.064,0 2.12861,-0.0466 3.19161,-0.14161 v 2.44545 c -0.553,0 -1.10399,0.0153 -1.65299,0.0463 -0.554,0.031 -1.10472,0.0463 -1.65571,0.0463 -2.48,0 -4.21634,-0.37513 -5.20134,-1.13013 -0.984,-0.754 -1.45607,-2.1454 -1.41607,-4.1774 V 88.26517 h -5.31843 v -2.448167 h 5.31843 z m -209.5701,6.462178 c 2.323,0 4.34242,0.341481 6.05642,1.018481 1.714,0.675999 3.14061,1.589997 4.28361,2.744996 1.144,1.152999 1.98776,2.493737 2.54076,4.016735 0.55,1.523999 0.82513,3.129807 0.82513,4.822806 0,1.690998 -0.27513,3.299804 -0.82513,4.822804 -0.553,1.522 -1.39676,2.86274 -2.54076,4.01674 -1.143,1.155 -2.56961,2.06321 -4.28361,2.72321 -1.714,0.662 -3.73342,0.99397 -6.05642,0.99397 -1.103,0 -2.20598,-0.10806 -3.30598,-0.32406 -1.10399,-0.216 -2.1305,-0.53547 -3.0745,-0.96947 -0.946,-0.43 -1.7818,-0.97158 -2.5108,-1.61758 -0.729,-0.646 -1.29067,-1.39727 -1.68567,-2.26027 h -0.1171 v 13.29472 h -3.72262 V 85.817003 h 3.42852 v 4.525976 h 0.1171 c 0.865,-1.661998 2.27542,-2.948067 4.22642,-3.856066 1.949,-0.906999 4.16363,-1.361605 6.64463,-1.361605 z m 30.90027,0 c 1.337,0 2.67674,0.102277 4.01674,0.302276 1.33899,0.199 2.54153,0.576133 3.60553,1.130133 1.063,0.553999 1.93066,1.331069 2.60066,2.331068 0.67,1.000999 1.00487,2.300639 1.00487,3.899637 v 12.646588 c 0,1.17 0.72601,1.75375 2.18401,1.75375 0.434,0 0.82688,-0.0615 1.18187,-0.18246 v 2.44272 c -0.43299,0.063 -0.81691,0.10961 -1.15191,0.14161 -0.335,0.028 -0.75802,0.0463 -1.26902,0.0463 -0.944,0 -1.70488,-0.10227 -2.27388,-0.30227 -0.572,-0.199 -1.01665,-0.48137 -1.33165,-0.85237 -0.315,-0.369 -0.52289,-0.80831 -0.62089,-1.31531 -0.099,-0.509 -0.14706,-1.06766 -0.14706,-1.68566 h -0.11709 c -0.671,0.76999 -1.35169,1.4543 -2.03969,2.0533 -0.689,0.601 -1.45583,1.10249 -2.30383,1.50049 -0.847,0.40099 -1.81078,0.70716 -2.89478,0.92316 -1.083,0.216 -2.37368,0.32407 -3.86968,0.32407 -1.419,0 -2.7505,-0.13215 -3.9895,-0.39215 -1.241,-0.261 -2.32279,-0.67723 -3.24879,-1.24723 -0.926,-0.569 -1.65474,-1.29067 -2.18674,-2.16767 -0.532,-0.878 -0.79518,-1.91708 -0.79518,-3.11808 0,-1.662 0.47007,-2.95991 1.41607,-3.896913 0.945,-0.938999 2.19559,-1.654613 3.75259,-2.148613 1.55399,-0.490999 3.30752,-0.835543 5.25852,-1.037543 1.94999,-0.199999 3.9276,-0.39232 5.93659,-0.57732 0.787,-0.06 1.47592,-0.13675 2.06692,-0.22875 0.591,-0.095 1.0847,-0.252732 1.4787,-0.484731 0.392,-0.23 0.697,-0.545678 0.915,-0.947678 0.216,-0.397999 0.32679,-0.924569 0.32679,-1.568569 0,-0.985999 -0.20689,-1.792658 -0.62089,-2.423657 -0.414,-0.631999 -0.98663,-1.132489 -1.71563,-1.500489 -0.729,-0.369 -1.57403,-0.622499 -2.53803,-0.762499 -0.966,-0.137 -2.00046,-0.206964 -3.10446,-0.206964 -2.362,0 -4.29355,0.437312 -5.78954,1.315311 -1.498,0.876999 -2.28303,2.285701 -2.36103,4.223699 h -3.72263 c 0.119,-1.384999 0.48997,-2.586085 1.12197,-3.600084 0.629,-1.017999 1.48671,-1.850461 2.57071,-2.494461 1.083,-0.646999 2.35177,-1.122686 3.80977,-1.429685 1.457,-0.309 3.07359,-0.462946 4.84459,-0.462946 z m 60.38447,0 c 2.44,0 4.52838,0.388642 6.26338,1.154641 1.731,0.770999 3.1397,1.775765 4.2237,3.022764 1.082,1.246998 1.86079,2.677504 2.33379,4.294503 0.474,1.615998 0.66994,3.253396 0.59094,4.915394 H 234.3838 c -0.001,1.046999 0.18699,2.13124 0.56099,3.25424 0.374,1.123 0.97849,2.13076 1.80548,3.02276 0.825,0.896 1.86797,1.63542 3.12897,2.21942 1.261,0.583 2.77649,0.87415 4.55049,0.87415 2.71699,0 4.8472,-0.55516 6.3832,-1.66116 1.535,-1.108 2.59888,-2.58539 3.18888,-4.43339 h 3.72263 c -0.788,2.709 -2.23552,4.80473 -4.34352,6.27973 -2.107,1.47799 -5.0922,2.21397 -8.95119,2.21397 -2.403,0 -4.48043,-0.33198 -6.23343,-0.99398 -1.752,-0.66 -3.18061,-1.56721 -4.28361,-2.72321 -1.104,-1.153 -1.92161,-2.49101 -2.45361,-4.01401 -0.532,-1.523 -0.7979,-3.131806 -0.7979,-4.822804 0,-1.569999 0.2659,-3.110567 0.7979,-4.618565 0.532,-1.506999 1.34961,-2.852522 2.45361,-4.038521 1.103,-1.182999 2.53161,-2.136372 4.28361,-2.859371 1.753,-0.722999 3.83043,-1.086561 6.23343,-1.086561 z m 145.22608,0 c 2.443,0 4.52939,0.388642 6.26339,1.154641 1.732,0.770999 3.1407,1.775765 4.2237,3.022764 1.084,1.246998 1.86251,2.677504 2.33651,4.294503 0.471,1.615998 0.66722,3.253396 0.58822,4.915394 h -23.45774 c 0,1.046999 0.18598,2.13124 0.56098,3.25424 0.374,1.123 0.97849,2.13076 1.80549,3.02276 0.827,0.896 1.86697,1.63542 3.12897,2.21942 1.261,0.583 2.77749,0.87415 4.55048,0.87415 2.718,0 4.84349,-0.55516 6.38049,-1.66116 1.53699,-1.108 2.6006,-2.58539 3.1916,-4.43339 h 3.7199 c -0.78799,2.709 -2.23279,4.80473 -4.34079,6.27973 -2.107,1.47799 -5.0912,2.21397 -8.9512,2.21397 -2.40199,0 -4.48143,-0.33198 -6.23342,-0.99398 -1.753,-0.66 -3.17989,-1.56721 -4.28089,-2.72321 -1.104,-1.153 -1.92261,-2.49101 -2.45361,-4.01401 -0.532,-1.523 -0.7979,-3.131806 -0.7979,-4.822804 0,-1.569999 0.2659,-3.110567 0.7979,-4.618565 0.531,-1.506999 1.34961,-2.852522 2.45361,-4.038521 1.102,-1.182999 2.52789,-2.136372 4.28089,-2.859371 1.75199,-0.722999 3.83143,-1.086561 6.23342,-1.086561 z m 31.4313,0 c 2.009,0 3.83048,0.388642 5.46548,1.154641 1.637,0.770999 2.72947,1.939497 3.28147,3.507495 0.904,-1.566998 2.24274,-2.735496 4.01674,-3.507495 1.77099,-0.766999 3.66345,-1.154641 5.67244,-1.154641 6.734,0 10.10311,2.784815 10.10311,8.354809 v 16.156803 h -3.72262 V 93.619001 c 0,-1.968998 -0.53281,-3.470468 -1.59581,-4.501467 -1.06399,-1.029999 -2.93554,-1.546783 -5.61253,-1.546783 -1.615,0 -2.95546,0.240205 -4.01946,0.716204 -1.063,0.48 -1.90876,1.116141 -2.54076,1.91714 -0.63,0.802 -1.07292,1.715997 -1.32892,2.744996 -0.257,1.031999 -0.38398,2.101943 -0.38398,3.207942 v 13.479887 h -3.72262 V 93.480117 c 0,-0.799999 -0.10707,-1.561774 -0.32407,-2.284773 -0.217,-0.721999 -0.57005,-1.353632 -1.06205,-1.892631 -0.494,-0.537 -1.15277,-0.959017 -1.97977,-1.269016 -0.828,-0.307 -1.8336,-0.462946 -3.0146,-0.462946 -1.57599,0 -2.94288,0.22691 -4.10387,0.66991 -1.163,0.446999 -2.10759,1.06306 -2.83759,1.84906 -0.729,0.781999 -1.27176,1.707506 -1.62576,2.769504 -0.354,1.061999 -0.53102,2.220988 -0.53102,3.482987 v 13.294708 h -3.72263 V 85.817003 h 3.42852 v 4.016736 h 0.17701 c 0.983,-1.478999 2.27268,-2.631201 3.86968,-3.461201 1.595,-0.828999 3.63361,-1.24723 6.11361,-1.24723 z m -299.37341,0.0027 c 1.535,0 2.96261,0.153946 4.28361,0.462946 1.32,0.307 2.47971,0.781686 3.48571,1.429685 1.004,0.645 1.79998,1.44515 2.39098,2.399149 0.59099,0.952999 0.92586,2.078336 1.00486,3.371334 h -3.71991 c -0.039,-0.892999 -0.27775,-1.670792 -0.71075,-2.333791 -0.434,-0.658999 -1.01386,-1.207373 -1.74286,-1.639373 -0.729,-0.428999 -1.5658,-0.743954 -2.5108,-0.944954 -0.946,-0.198 -1.94887,-0.302276 -3.01187,-0.302276 -0.826,0 -1.6648,0.06996 -2.5108,0.206964 -0.848,0.14 -1.62579,0.371419 -2.33379,0.694419 -0.709,0.323999 -1.28162,0.747016 -1.71562,1.269016 -0.432,0.524999 -0.64813,1.168926 -0.64813,1.938925 0,0.646 0.2069,1.192373 0.6209,1.639373 0.413,0.447 0.93484,0.824133 1.56584,1.130132 0.629,0.31 1.31792,0.564223 2.06692,0.765222 0.749,0.198 1.43764,0.360009 2.06964,0.482009 l 4.96169,0.876873 c 1.062,0.123 2.11665,0.345187 3.16164,0.667187 1.043,0.324 1.96696,0.74674 2.77496,1.271739 0.808,0.521 1.46677,1.169927 1.97977,1.938933 0.51,0.771 0.76795,1.67621 0.76795,2.72321 0,1.293 -0.37497,2.39425 -1.12197,3.30325 -0.749,0.908 -1.70382,1.64497 -2.86481,2.21397 -1.161,0.571 -2.4726,0.97772 -3.9296,1.22272 -1.458,0.246 -2.89656,0.37036 -4.31356,0.37036 -3.585,0 -6.492,-0.66322 -8.717,-1.98522 -2.224,-1.322 -3.49477,-3.44559 -3.80977,-6.36959 h 3.72263 c 0.159,1.969 1.07472,3.45617 2.74772,4.45517 1.674,1.001 3.75243,1.50049 6.23343,1.50049 0.907,0 1.84363,-0.0782 2.80763,-0.2342 0.964,-0.153 1.85981,-0.41428 2.6878,-0.78428 0.828,-0.369 1.50497,-0.83618 2.03697,-1.40518 0.532,-0.569 0.7979,-1.27032 0.7979,-2.10232 0,-0.70599 -0.18798,-1.29925 -0.56098,-1.77825 -0.375,-0.476 -0.87694,-0.87549 -1.50594,-1.19549 -0.629,-0.324 -1.34978,-0.596521 -2.15678,-0.811521 -0.809,-0.214999 -1.62489,-0.396812 -2.45089,-0.552811 l -4.78741,-0.83058 c -1.22199,-0.244999 -2.34561,-0.532088 -3.36861,-0.855088 -1.024,-0.321999 -1.91881,-0.723213 -2.68781,-1.198212 -0.76699,-0.479 -1.37076,-1.061748 -1.80276,-1.753748 -0.435,-0.692999 -0.64812,-1.549265 -0.64812,-2.565264 0,-1.199999 0.34309,-2.228845 1.03209,-3.090844 0.688,-0.861999 1.58753,-1.55281 2.69053,-2.077809 1.102,-0.522 2.33468,-0.907642 3.69268,-1.154641 1.36,-0.246 2.70669,-0.367634 4.04669,-0.367634 z m 93.29174,0 c 3.271,0 6.03535,0.679516 8.30034,2.031515 2.264,1.354999 3.61542,3.399119 4.04942,6.138116 h -3.72263 c -0.513,-1.786998 -1.45959,-3.186914 -2.83759,-4.201913 -1.37999,-1.016999 -3.30754,-1.524998 -5.78954,-1.524998 -1.771,0 -3.32858,0.295597 -4.66758,0.879597 -1.339,0.584999 -2.45166,1.355283 -3.33866,2.309282 -0.886,0.952999 -1.55501,2.038238 -2.00701,3.254237 -0.45399,1.214998 -0.6808,2.45346 -0.6808,3.714459 0,1.260998 0.22681,2.499467 0.6808,3.714457 0.452,1.216 1.12101,2.30297 2.00701,3.25696 0.887,0.954 1.99966,1.72529 3.33866,2.30929 1.339,0.583 2.89658,0.87687 4.66758,0.87687 1.143,0 2.22579,-0.17096 3.24879,-0.51196 1.023,-0.338 1.92976,-0.80818 2.71776,-1.40518 0.788,-0.603 1.43782,-1.31489 1.94982,-2.14589 0.511,-0.831 0.82868,-1.73921 0.94768,-2.72321 h 3.72263 c -0.513,2.892 -1.87437,5.14573 -4.07937,6.76173 -2.207,1.616 -5.04131,2.42366 -8.50731,2.42366 -2.324,0 -4.38152,-0.33197 -6.17352,-0.99397 -1.792,-0.66 -3.30053,-1.55898 -4.52053,-2.69598 -1.222,-1.14 -2.14767,-2.47295 -2.77767,-3.99495 -0.631,-1.524 -0.94496,-3.147106 -0.94496,-4.869104 0,-1.722998 0.31396,-3.346102 0.94496,-4.8691 0.63,-1.522999 1.55567,-2.853951 2.77767,-3.99495 1.22,-1.136999 2.72853,-2.047211 4.52053,-2.72321 1.792,-0.677 3.84952,-1.015758 6.17352,-1.015758 z m 73.91338,0 c 1.53599,0 2.96261,0.153946 4.28361,0.462946 1.31899,0.307 2.48071,0.781686 3.4857,1.429685 1.005,0.645 1.79998,1.44515 2.39098,2.399149 0.591,0.952999 0.92587,2.078336 1.00487,3.371334 h -3.71991 c -0.038,-0.892999 -0.27503,-1.670792 -0.70803,-2.333791 -0.435,-0.658999 -1.01658,-1.207373 -1.74558,-1.639373 -0.729,-0.428999 -1.5658,-0.743954 -2.5108,-0.944954 -0.946,-0.198 -1.94987,-0.302276 -3.01187,-0.302276 -0.827,0 -1.66552,0.06996 -2.51352,0.206964 -0.847,0.14 -1.62307,0.371419 -2.33107,0.694419 -0.709,0.323999 -1.28062,0.747016 -1.71562,1.269016 -0.433,0.524999 -0.64813,1.169926 -0.64813,1.938925 0,0.646 0.20689,1.192373 0.62089,1.639373 0.413,0.447 0.93585,0.825133 1.56585,1.130132 0.629,0.31 1.31792,0.564223 2.06692,0.765222 0.749,0.198 1.43791,0.360009 2.06691,0.482009 l 4.96169,0.876873 c 1.063,0.123 2.11765,0.345187 3.16165,0.667187 1.043,0.324 1.96968,0.74674 2.77767,1.271739 0.807,0.521 1.46506,1.169927 1.97706,1.938933 0.51199,0.771 0.77066,1.67621 0.77066,2.72321 0,1.293 -0.37396,2.39425 -1.12196,3.30325 -0.749,0.908 -1.70382,1.64497 -2.86482,2.21397 -1.163,0.571 -2.47459,0.97772 -3.92959,1.22272 -1.458,0.246 -2.89557,0.37036 -4.31356,0.37036 -3.585,0 -6.491,-0.66222 -8.717,-1.98522 -2.225,-1.322 -3.49477,-3.44559 -3.80977,-6.36959 h 3.72263 c 0.158,1.969 1.07372,3.45617 2.74772,4.45517 1.67399,1.001 3.7507,1.50049 6.2307,1.50049 0.906,0 1.84263,-0.0782 2.80763,-0.2342 0.964,-0.153 1.86253,-0.41428 2.69053,-0.78428 0.827,-0.368 1.50596,-0.83618 2.03696,-1.40518 0.532,-0.569 0.7979,-1.27032 0.7979,-2.10232 0,-0.70599 -0.18698,-1.29925 -0.56098,-1.77825 -0.375,-0.476 -0.87793,-0.87549 -1.50593,-1.19549 -0.631,-0.324 -1.35079,-0.596521 -2.15678,-0.811521 -0.809,-0.214999 -1.62662,-0.395812 -2.45362,-0.552811 l -4.78468,-0.83058 c -1.222,-0.244999 -2.34389,-0.532088 -3.36589,-0.855088 -1.02399,-0.321999 -1.92253,-0.723213 -2.69053,-1.198212 -0.767,-0.479 -1.36804,-1.061748 -1.80004,-1.753748 -0.436,-0.692999 -0.65085,-1.549265 -0.65085,-2.565264 0,-1.199999 0.34582,-2.228845 1.03482,-3.090844 0.688,-0.861999 1.58481,-1.55281 2.68781,-2.077809 1.102,-0.522 2.33295,-0.907642 3.68995,-1.154641 1.36,-0.246 2.70942,-0.367634 4.04942,-0.367634 z m 54.58947,0 c 1.536,0 2.96461,0.153946 4.28361,0.462946 1.32,0.307 2.48171,0.781686 3.48571,1.429685 1.004,0.645 1.8027,1.44515 2.3937,2.399149 0.592,0.952999 0.92487,2.078336 1.00487,3.371334 h -3.72263 c -0.038,-0.892999 -0.27231,-1.670792 -0.70531,-2.333791 -0.435,-0.658999 -1.01558,-1.207373 -1.74558,-1.639373 -0.729,-0.428999 -1.56308,-0.743954 -2.50808,-0.944954 -0.946,-0.198 -1.95059,-0.302276 -3.01459,-0.302276 -0.828,0 -1.6638,0.06996 -2.5108,0.206964 -0.847,0.14 -1.62752,0.371419 -2.33652,0.694419 -0.709,0.323999 -1.2799,0.747016 -1.7129,1.269016 -0.43499,0.524999 -0.64812,1.169926 -0.64812,1.938925 0,0.646 0.20689,1.192373 0.62089,1.639373 0.413,0.447 0.93413,0.825133 1.56313,1.130132 0.63099,0.31 1.32064,0.564223 2.06964,0.765222 0.74699,0.198 1.43791,0.360009 2.06691,0.482009 l 4.96169,0.876873 c 1.063,0.124 2.11765,0.345187 3.16165,0.667187 1.043,0.324 1.97067,0.74674 2.77767,1.271739 0.806,0.521 1.46678,1.169927 1.97978,1.938933 0.51,0.771 0.76794,1.67621 0.76794,2.72321 0,1.293 -0.37496,2.39425 -1.12196,3.30325 -0.749,0.908 -1.70454,1.64497 -2.86754,2.21397 -1.162,0.571 -2.47359,0.97772 -3.92959,1.22272 -1.458,0.246 -2.89285,0.37036 -4.31085,0.37036 -3.58399,0 -6.49099,-0.66222 -8.71699,-1.98522 -2.226,-1.322 -3.49477,-3.44559 -3.80977,-6.36959 h 3.72263 c 0.158,1.969 1.07099,3.45617 2.74499,4.45517 1.675,1.001 3.75516,1.50049 6.23615,1.50049 0.906,0 1.83991,-0.0782 2.80491,-0.2342 0.965,-0.153 1.86081,-0.41428 2.68781,-0.78428 0.826,-0.368 1.50868,-0.83618 2.03968,-1.40518 0.53,-0.569 0.7979,-1.27032 0.7979,-2.10232 0,-0.70599 -0.1897,-1.29925 -0.5637,-1.77825 -0.374,-0.476 -0.87694,-0.87549 -1.50594,-1.19549 -0.63,-0.324 -1.34878,-0.596521 -2.15678,-0.811521 -0.808,-0.214999 -1.62389,-0.395812 -2.45089,-0.552811 l -4.78468,-0.83058 c -1.223,-0.244999 -2.34461,-0.532088 -3.36861,-0.855088 -1.024,-0.322999 -1.91881,-0.723213 -2.68781,-1.198212 -0.767,-0.479 -1.36976,-1.061748 -1.80276,-1.753748 -0.434,-0.692999 -0.64813,-1.549265 -0.64813,-2.565264 0,-1.199999 0.3431,-2.228845 1.0321,-3.090844 0.69,-0.861999 1.58481,-1.55281 2.68781,-2.077809 1.102,-0.522 2.33367,-0.907642 3.69267,-1.154641 1.359,-0.246 2.70669,-0.367634 4.04669,-0.367634 z m 123.42679,0 c 1.536,0 2.96289,0.153946 4.28089,0.462946 1.31999,0.307 2.48171,0.781686 3.48571,1.429685 1.00499,0.645 1.8017,1.44515 2.3937,2.399149 0.591,0.952999 0.92686,2.078336 1.00486,3.371334 h -3.72263 c -0.036,-0.892999 -0.27231,-1.670792 -0.70531,-2.333791 -0.433,-0.658999 -1.01658,-1.207373 -1.74558,-1.639373 -0.728,-0.428999 -1.56107,-0.743954 -2.50807,-0.944954 -0.945,-0.198 -1.9516,-0.302276 -3.0146,-0.302276 -0.827,0 -1.6628,0.06996 -2.5108,0.206964 -0.848,0.14 -1.62579,0.370419 -2.33379,0.694419 -0.709,0.322999 -1.28062,0.747016 -1.71562,1.269016 -0.433,0.524999 -0.64812,1.169926 -0.64812,1.938925 0,0.646 0.20861,1.192373 0.62361,1.639373 0.413,0.447 0.93412,0.825133 1.56312,1.130132 0.629,0.31 1.31892,0.564223 2.06692,0.765222 0.749,0.198 1.43864,0.360009 2.06964,0.482009 l 4.96169,0.876873 c 1.062,0.124 2.11765,0.345187 3.16165,0.667187 1.043,0.324 1.96795,0.74674 2.77495,1.271739 0.809,0.521 1.46577,1.169927 1.97977,1.938933 0.509,0.771 0.76795,1.67621 0.76795,2.72321 0,1.293 -0.37497,2.39425 -1.12197,3.30325 -0.74799,0.908 -1.70481,1.64497 -2.86481,2.21397 -1.162,0.571 -2.47432,0.97772 -3.93232,1.22272 -1.457,0.246 -2.89284,0.37036 -4.31084,0.37036 -3.584,0 -6.491,-0.66222 -8.717,-1.98522 -2.225,-1.322 -3.49277,-3.44559 -3.80977,-6.36959 h 3.72263 c 0.157,1.969 1.07272,3.45617 2.74772,4.45517 1.674,1.001 3.74971,1.50049 6.2307,1.50049 0.906,0 1.84264,-0.0782 2.80763,-0.2342 0.964,-0.153 1.85981,-0.41428 2.68781,-0.78428 0.827,-0.368 1.50769,-0.83618 2.03969,-1.40518 0.532,-0.569 0.7979,-1.27032 0.7979,-2.10232 0,-0.70599 -0.19071,-1.29925 -0.56371,-1.77825 -0.376,-0.476 -0.87793,-0.87549 -1.50593,-1.19549 -0.631,-0.324 -1.34878,-0.596521 -2.15678,-0.811521 -0.807,-0.214999 -1.62489,-0.395812 -2.45089,-0.552811 l -4.78741,-0.83058 c -1.222,-0.244999 -2.34289,-0.532088 -3.36589,-0.855088 -1.02499,-0.321999 -1.9198,-0.723213 -2.6878,-1.198212 -0.769,-0.479 -1.36977,-1.061748 -1.80277,-1.753748 -0.434,-0.692999 -0.64812,-1.549265 -0.64812,-2.565264 0,-1.199999 0.34309,-2.228845 1.03209,-3.090844 0.688,-0.861999 1.58381,-1.55281 2.68781,-2.077809 1.102,-0.522 2.33468,-0.907642 3.69268,-1.154641 1.35799,-0.246 2.70841,-0.367634 4.04941,-0.367634 z M 302.51036,85.81698 h 3.95682 l 10.0432,20.31515 9.39508,-20.31515 h 3.72263 l -13.2348,27.42001 c -0.552,1.017 -1.0629,1.85325 -1.5359,2.51625 -0.47399,0.65999 -0.99312,1.18356 -1.56312,1.56856 -0.57,0.384 -1.24345,0.66058 -2.01245,0.83058 -0.768,0.169 -1.74101,0.25326 -2.92201,0.25326 -0.74699,-0.03 -1.32885,-0.0524 -1.74285,-0.0653 -0.414,-0.018 -0.77873,-0.0714 -1.09473,-0.1634 v -2.44816 c 0.434,0.062 0.85674,0.11739 1.27174,0.16339 0.415,0.046 0.83402,0.0681 1.26901,0.0681 0.827,0 1.50597,-0.0931 2.03697,-0.27504 0.531,-0.188 0.99383,-0.4395 1.38883,-0.7625 0.394,-0.322 0.72887,-0.71543 1.00487,-1.17643 0.274,-0.462 0.57077,-0.97028 0.88776,-1.52228 l 1.29898,-2.67963 z" /><g
     id="g7776"
     transform="matrix(0.71721414,0,0,0.71721414,1.7028447,1.1335909)">
	
</g></g><g
   inkscape:groupmode="layer"
   id="layer1"
   inkscape:label="Original"
   style="display:inline"
   transform="translate(-0.08865856,-0.23709605)"><g
     id="g1489"
     transform="matrix(0.71721414,0,0,0.71721414,1.7028446,1.1335909)">
	<path
   fill="#1d3b5e"
   d="M 97.454,41.779 C 92.614,56.591 82.95,86.165 82.95,86.165 L 47.808,35.657 Z"
   id="path1481" />
	<path
   fill="#1d3b5e"
   d="m 82.636,87.069 -8.827,26.983 -31.08,-65.651 c 0.536,-3.305 1.147,-6.569 1.788,-10.141 12.792,16.378 25.431,32.563 38.119,48.809"
   id="path1483" />
	<path
   fill="#1d3b5e"
   d="m 98.604,39.482 c -0.181,0.527 -0.335,0.977 -0.515,1.502 -16.424,-2.954 -32.778,-5.896 -49.356,-8.878 3.64,-2.832 7.105,-5.529 10.631,-8.273 13.052,5.205 26.104,10.41 39.24,15.649"
   id="path1485" />
	<path
   fill="#1d3b5e"
   d="M 59.364,23.833 C 58.31,23.413 57.219,22.907 55.953,22.404 71.797,12.61 88.85,5.724 106.868,2 90.175,7.154 74.182,14.506 59.364,23.833"
   id="path1487" />
</g><g
     id="g1525"
     transform="matrix(0.71721414,0,0,0.71721414,1.7028446,1.1335909)">
	<polygon
   fill="#1b3a5e"
   points="478.48,41.106 465.588,51.689 481.416,73.409 472.52,73.409 459.996,56.264 452.048,62.804 452.048,73.409 444.815,73.409 444.815,41.106 452.048,41.106 452.048,53.468 467.113,41.106 "
   id="polygon1505" />
	<path
   fill="#1b3a5e"
   d="m 441.308,73.409 h -8.989 l -6.308,-8.503 h -14.095 v 8.503 h -7.232 V 57.674 h 24.724 c 1.278,0 2.372,-0.454 3.281,-1.364 0.909,-0.908 1.363,-2.002 1.363,-3.281 0,-1.294 -0.454,-2.395 -1.363,-3.304 -0.909,-0.909 -2.003,-1.363 -3.281,-1.363 h -24.724 v -7.256 l 24.724,0.024 c 1.633,0 3.166,0.316 4.599,0.947 2.926,1.294 5.045,3.404 6.354,6.331 0.632,1.541 0.948,3.081 0.948,4.621 0,1.525 -0.316,3.058 -0.948,4.598 -1.263,2.85 -3.312,4.93 -6.146,6.239 z"
   id="path1507" />
	<polygon
   fill="#1b3a5e"
   points="384.281,41.106 402.373,73.409 394.102,73.409 381.139,50.257 368.153,73.409 359.881,73.409 377.973,41.106 "
   id="polygon1509" />
	<polygon
   fill="#1b3a5e"
   points="315.276,41.106 323.479,41.106 336.534,59.753 349.589,41.106 357.792,41.106 357.792,73.409 350.56,73.409 350.56,52.29 339.492,68.095 333.576,68.095 322.532,52.29 322.532,73.409 315.276,73.409 "
   id="polygon1511" />
	<polygon
   fill="#1b3a5e"
   points="303.423,41.106 310.655,41.106 310.655,73.409 303.423,73.409 303.423,60.886 281.287,60.886 281.287,73.409 274.031,73.409 274.031,41.106 281.287,41.106 281.287,53.653 303.423,53.653 "
   id="polygon1513" />
	<path
   fill="#1b3a5e"
   d="m 259.93,73.409 h -15.572 c -1.449,0 -2.805,-0.27 -4.068,-0.809 -2.603,-1.155 -4.475,-3.027 -5.614,-5.615 -0.555,-1.277 -0.832,-2.641 -0.832,-4.09 v -11.16 c 0,-1.432 0.277,-2.787 0.832,-4.066 1.139,-2.588 3.011,-4.46 5.614,-5.615 1.263,-0.555 2.619,-0.832 4.068,-0.832 h 15.572 c 1.449,0 2.813,0.277 4.09,0.832 2.588,1.155 4.461,3.027 5.615,5.615 0.539,1.279 0.809,2.634 0.809,4.066 h -7.232 c 0,-0.909 -0.32,-1.679 -0.959,-2.31 -0.639,-0.632 -1.412,-0.948 -2.322,-0.948 h -15.572 c -0.91,0 -1.684,0.316 -2.322,0.948 -0.641,0.631 -0.959,1.401 -0.959,2.31 v 11.16 c 0,0.91 0.318,1.685 0.959,2.323 0.639,0.639 1.412,0.959 2.322,0.959 h 15.572 c 0.91,0 1.684,-0.32 2.322,-0.959 0.638,-0.639 0.959,-1.413 0.959,-2.323 h 7.232 c 0,1.449 -0.27,2.813 -0.809,4.09 -1.154,2.588 -3.027,4.46 -5.615,5.615 -1.278,0.539 -2.641,0.809 -4.09,0.809"
   id="path1515" />
	<polygon
   fill="#1b3a5e"
   points="192.621,73.409 192.621,41.106 201.356,41.106 221.99,64.259 221.99,41.106 229.222,41.106 229.222,73.409 220.465,73.409 199.854,50.257 199.854,73.409 "
   id="polygon1517" />
	<polygon
   fill="#1b3a5e"
   points="158.605,53.694 151.375,53.694 151.377,73.41 188.001,73.41 188.001,66.176 158.605,66.176 158.605,60.932 185.043,60.932 185.043,53.7 158.605,53.7 "
   id="polygon1519" />
	<rect
   x="151.377"
   y="41.223"
   fill="#1b3a5e"
   width="36.624001"
   height="7.2319999"
   id="rect1521" />
	<path
   fill="#1b3a5e"
   d="M 136.889,73.409 H 110.155 V 53.654 h 26.734 c 0.724,0 1.344,-0.262 1.86,-0.786 0.516,-0.524 0.774,-1.148 0.774,-1.872 0,-0.724 -0.258,-1.343 -0.774,-1.86 -0.516,-0.516 -1.136,-0.774 -1.86,-0.774 H 110.155 V 41.13 h 26.734 c 1.355,0 2.63,0.254 3.824,0.762 1.194,0.509 2.245,1.218 3.155,2.126 1.925,1.972 2.888,4.306 2.888,7.001 0,1.125 -0.201,2.25 -0.601,3.374 -0.386,1.063 -0.933,2.026 -1.641,2.888 1.494,1.911 2.242,3.998 2.242,6.262 0,2.634 -0.963,4.96 -2.888,6.979 -0.91,0.908 -1.961,1.617 -3.155,2.126 -1.194,0.508 -2.469,0.761 -3.824,0.761 m 0,-7.233 c 0.724,0 1.344,-0.258 1.86,-0.772 0.516,-0.518 0.774,-1.137 0.774,-1.861 0,-0.723 -0.258,-1.347 -0.774,-1.872 -0.516,-0.523 -1.136,-0.785 -1.86,-0.785 h -19.501 v 5.291 h 19.501 z"
   id="path1523" />
</g></g><g
   inkscape:groupmode="layer"
   id="layer4"
   inkscape:label="Border"
   transform="translate(-0.08865856,-0.23709605)"><rect
     style="fill:#111111;fill-opacity:1;stroke:none"
     id="rect8816"
     width="30.791037"
     height="131.31471"
     x="-29.796759"
     y="-18.780897" /><rect
     style="fill:#111111;fill-opacity:1;stroke:none"
     id="rect8818"
     width="407.52844"
     height="37.130367"
     x="-37.94733"
     y="-34.176418" /><rect
     style="fill:#111111;fill-opacity:1;stroke:none"
     id="rect8820"
     width="33.507893"
     height="144.899"
     x="352.37436"
     y="-7.007854" /><rect
     style="fill:#111111;fill-opacity:1;stroke:none"
     id="rect8822"
     width="377.64301"
     height="23.546087"
     x="-7.1562915"
     y="97.138306" /></g></svg>
