<?xml version="1.0" encoding="utf-8"?>
<!-- Generator: Adobe Illustrator 16.0.0, SVG Export Plug-In . SVG Version: 6.00 Build 0)  -->
<!DOCTYPE svg PUBLIC "-//W3C//DTD SVG 1.1//EN" "http://www.w3.org/Graphics/SVG/1.1/DTD/svg11.dtd">
<svg version="1.1" id="Layer_3" xmlns="http://www.w3.org/2000/svg" xmlns:xlink="http://www.w3.org/1999/xlink" x="0px" y="0px"
	 width="500px" height="140.311px" viewBox="0 0 500 140.311" enable-background="new 0 0 500 140.311" xml:space="preserve">
<g>
	<path fill="#616161" stroke="#616161" stroke-miterlimit="10" d="M133.106,13.009c-9.555,0-18.88,1.951-27.717,5.802
		c-10.986,4.622-19.361,12.583-19.554,12.604c-5.821-1.524-7.504-1.974-12.819-2.938c0.327-1.024,11.227-10.007,20.509-13.639
		c8.196-3.467,16.905-5.226,25.885-5.226c14.486,0.043,26.028,4.312,25.963,4.537C145.304,14.375,138.372,12.705,133.106,13.009
		 M97.279,37.146c12.425,4.081,26.662,10.878,26.664,10.934c0.002,0.055-9.352,5.695-9.352,5.695
		c-0.998,0.607-1.615,1.711-1.615,2.878c0,0,0.095,9.948,0,10.014c-0.095,0.064-26.298-16.55-41.098-20.994
		c-9.703-3.488-18.308-5.259-25.569-5.259c-8.676,0-12.637,2.528-13.465,3.142c-2.917,1.812-4.752,4.493-5.451,7.967
		c-1.09,5.403,0.54,12.503,5.048,21.508c1.504,2.817,5.413,8.518,4.986,8.862c-0.507,0.417-10.879-11.502-14.05-18.187
		c-3.053-5.731-4.4-11.039-4.006-15.773c0.689-8.278,6.448-12.07,6.687-12.224c0.011-0.008,0.025-0.017,0.036-0.023
		c7.057-4.646,16.32-7.001,27.528-7.001C66.078,28.682,80.768,31.529,97.279,37.146 M67.106,57.477
		c-3.812,8.878-5.793,18.23-5.883,27.8c-0.091,9.722,1.202,18.88,3.84,27.224c1.904,6.966,6.562,13.995,6.285,14.181
		c-0.254,0.17-8.094-8.479-12.342-19.16c-3.988-9.485-6.097-20.347-6.097-31.406c0-8.979,1.757-17.688,5.225-25.884
		c0.825-1.948,2.589-5.539,2.736-5.695c0.146-0.158,11.053,3.267,11.145,3.46C72.107,48.186,68.493,53.767,67.106,57.477
		 M50.781,76.111c0,21.771,7.873,42.593,22.883,55.671c-0.193,0.447-0.304,0.938-0.296,1.455c0.026,1.969,1.645,3.54,3.61,3.514
		c0.58-0.009,1.115-0.168,1.598-0.419c0.796-0.42,1.408-1.122,1.708-1.98c0.131-0.382,0.212-0.785,0.205-1.211
		c-0.008-0.612-0.185-1.179-0.464-1.678c-0.433-0.773-1.138-1.363-1.99-1.646c-0.364-0.117-0.75-0.195-1.154-0.189
		c-0.331,0.005-0.646,0.067-0.945,0.157c-8.576-12.01-12.739-27.566-12.581-44.488c0.124-13.259,4.04-25.812,10.7-36.535
		c10.477,4.048,23.378,10.499,39.142,20.567c0.212,0.135,0.441,0.196,0.666,0.196c0.646,0,1.243-0.515,1.243-1.239V56.652
		c0-0.434,0.227-0.834,0.596-1.06l10.735-6.54c0.833-0.508,0.782-1.734-0.091-2.169c-7.316-3.812-22.297-10.305-38.06-14.789
		c2.976-2.673,20.777-17.324,44.82-16.957c5.489,0,10.854,0.728,16.002,2.016c0.234,1.765,1.738,3.118,3.562,3.094
		c0.58-0.009,1.117-0.167,1.597-0.42c0.796-0.418,1.409-1.121,1.707-1.979c0.132-0.381,0.214-0.785,0.208-1.212
		c-0.009-0.611-0.187-1.178-0.464-1.678h-0.001c-0.433-0.772-1.138-1.362-1.992-1.644c-0.365-0.119-0.749-0.196-1.154-0.19
		c-0.853,0.012-1.617,0.334-2.225,0.841c-9.297-4.344-19.805-6.479-30.938-6.479c-30.605,0-47.259,19.099-48.961,20.543
		c-0.13,0.031-10.144-1.628-16.827-1.477c-10.599,0-20.616,2.032-28.698,7.354c0,0-25.114,15.783,15.087,53.473
		c-0.224,0.477-0.359,1-0.353,1.562c0.027,1.968,1.646,3.539,3.611,3.513c0.58-0.01,1.117-0.167,1.597-0.419
		c0.799-0.419,1.411-1.123,1.708-1.981c0.134-0.379,0.215-0.783,0.207-1.211c-0.009-0.612-0.185-1.178-0.464-1.677
		c-0.433-0.773-1.138-1.363-1.992-1.645c-0.362-0.119-0.748-0.195-1.153-0.19c-0.301,0.005-0.587,0.058-0.866,0.132
		c-5.852-8.519-20.735-32.523-8.258-40.147c0,0,3.439-2.771,12.262-2.771c3.334,0,12.286,1.159,12.423,1.49
		C54.625,50.448,50.78,64.522,50.781,76.111"/>
</g>
<g>
	<g>
		<path fill="#616161" stroke="#616161" stroke-miterlimit="10" d="M447.186,62.356c0-1.256,0.786-2.322,1.89-2.753
			c0.334-0.131,0.693-0.208,1.073-0.208c0.379,0,0.739,0.077,1.072,0.208c0.771,0.3,1.381,0.909,1.681,1.681h28.831h1.681v-1.681
			v-3.528c-0.697-0.271-1.262-0.801-1.586-1.471h-19.133h-2.688c-0.595,0-1.074-0.48-1.074-1.073v-2.953v-3.772
			c-1.087-0.438-1.856-1.499-1.856-2.743c0-1.638,1.325-2.962,2.961-2.962c1.259,0,2.324,0.783,2.757,1.89h15.511h1.89v-1.746
			v-3.222c-0.854-0.263-1.548-0.891-1.88-1.712h-15.532h-2.771c-0.594,0-1.074-0.48-1.074-1.074v-2.776V28.73
			c-1.087-0.438-1.856-1.5-1.856-2.745c0-1.636,1.325-2.962,2.962-2.962c1.293,0,2.383,0.834,2.785,1.989
			c0.106,0.307,0.178,0.63,0.178,0.973c0,0.418-0.089,0.813-0.244,1.177c-0.317,0.731-0.927,1.305-1.675,1.588v3.688v1.725h1.721
			h15.492c0.422-1.122,1.493-1.922,2.764-1.922c1.635,0,2.962,1.326,2.962,2.962c0,1.174-0.688,2.179-1.679,2.657v3.542v2.659
			c0,0.593-0.479,1.073-1.073,1.073h-2.964h-15.516c-0.305,0.779-0.929,1.394-1.71,1.688v3.732v1.899h1.774h18.812
			c0.372-1.211,1.484-2.099,2.816-2.099c1.637,0,2.963,1.326,2.963,2.962c0,1.257-0.785,2.323-1.889,2.755V59.6v2.753
			c0,0.593-0.479,1.074-1.074,1.074h-2.753h-28.831c-0.431,1.104-1.497,1.888-2.753,1.888
			C448.512,65.318,447.186,63.992,447.186,62.356"/>
		<path fill="#616161" stroke="#616161" stroke-miterlimit="10" d="M447.186,62.356c0-1.256,0.786-2.322,1.89-2.753
			c0.334-0.131,0.693-0.208,1.073-0.208c0.379,0,0.739,0.077,1.072,0.208c0.771,0.3,1.381,0.909,1.681,1.681h28.831h1.681v-1.681
			v-3.528c-0.697-0.271-1.262-0.801-1.586-1.471h-19.133h-2.688c-0.595,0-1.074-0.48-1.074-1.073v-2.953v-3.772
			c-1.087-0.438-1.856-1.499-1.856-2.743c0-1.638,1.325-2.962,2.961-2.962c1.259,0,2.324,0.783,2.757,1.89h15.511h1.89v-1.746
			v-3.222c-0.854-0.263-1.548-0.891-1.88-1.712h-15.532h-2.771c-0.594,0-1.074-0.48-1.074-1.074v-2.776V28.73
			c-1.087-0.438-1.856-1.5-1.856-2.745c0-1.636,1.325-2.962,2.962-2.962c1.293,0,2.383,0.834,2.785,1.989
			c0.106,0.307,0.178,0.63,0.178,0.973c0,0.418-0.089,0.813-0.244,1.177c-0.317,0.731-0.927,1.305-1.675,1.588v3.688v1.725h1.721
			h15.492c0.422-1.122,1.493-1.922,2.764-1.922c1.635,0,2.962,1.326,2.962,2.962c0,1.174-0.688,2.179-1.679,2.657v3.542v2.659
			c0,0.593-0.479,1.073-1.073,1.073h-2.964h-15.516c-0.305,0.779-0.929,1.394-1.71,1.688v3.732v1.899h1.774h18.812
			c0.372-1.211,1.484-2.099,2.816-2.099c1.637,0,2.963,1.326,2.963,2.962c0,1.257-0.785,2.323-1.889,2.755V59.6v2.753
			c0,0.593-0.479,1.074-1.074,1.074h-2.753h-28.831c-0.431,1.104-1.497,1.888-2.753,1.888
			C448.512,65.318,447.186,63.992,447.186,62.356"/>
	</g>
	<g>
		<path fill="#616161" stroke="#616161" stroke-miterlimit="10" d="M484.561,114.985c-1.333,0-2.446,0.888-2.818,2.099H462.93
			h-1.776v-1.898v-3.733c0.783-0.296,1.405-0.91,1.709-1.688h15.514c0.434,1.104,1.497,1.888,2.755,1.888
			c1.636,0,2.962-1.325,2.962-2.962c0-1.174-0.689-2.18-1.682-2.656v-3.543v-2.624c0-0.596-0.479-1.075-1.07-1.075h-2.977h-15.489
			c-0.302-0.794-0.928-1.422-1.722-1.724v-3.688v-1.587h1.673h18.547h2.865c0.593,0,1.073-0.481,1.073-1.075V87.92v-3.339
			c1.025-0.467,1.74-1.493,1.74-2.692c0-1.637-1.325-2.963-2.961-2.963c-1.257,0-2.324,0.785-2.754,1.89
			c-0.133,0.334-0.208,0.692-0.208,1.073c0,0.38,0.075,0.74,0.208,1.073c0.316,0.816,0.988,1.449,1.826,1.727v3.125v1.828h-1.857
			h-18.41h-2.816c-0.594,0-1.072,0.479-1.072,1.072v2.644v3.729c-1.089,0.438-1.856,1.5-1.856,2.745
			c0,1.637,1.325,2.962,2.961,2.962c1.244,0,2.307-0.769,2.743-1.854h15.532h1.88v1.712v3.222c-0.867,0.267-1.563,0.907-1.891,1.746
			h-15.512c-0.431-1.104-1.499-1.892-2.755-1.892c-1.636,0-2.961,1.326-2.961,2.963c0,1.245,0.771,2.308,1.856,2.744v3.772v2.953
			c0,0.593,0.479,1.073,1.072,1.073h2.69h19.133c0.323,0.67,0.885,1.198,1.583,1.472v3.527v1.682h-1.679h-28.83
			c-0.302-0.771-0.912-1.38-1.681-1.682V107.19c1.104-0.431,1.888-1.497,1.888-2.753s-0.784-2.322-1.888-2.755
			c-0.334-0.129-0.694-0.208-1.074-0.208c-0.379,0-0.739,0.079-1.073,0.208c-1.104,0.433-1.889,1.499-1.889,2.755
			s0.784,2.322,1.889,2.753v17.042c-1.104,0.431-1.889,1.498-1.889,2.753c0,1.638,1.326,2.964,2.962,2.964
			c1.256,0,2.322-0.784,2.755-1.89h28.83h2.753c0.594,0,1.074-0.479,1.074-1.074v-2.755v-3.525c1.104-0.432,1.89-1.498,1.89-2.755
			C487.524,116.311,486.197,114.985,484.561,114.985"/>
		<path fill="#616161" stroke="#616161" stroke-miterlimit="10" d="M484.561,114.985c-1.333,0-2.446,0.888-2.818,2.099H462.93
			h-1.776v-1.898v-3.733c0.783-0.296,1.405-0.91,1.709-1.688h15.514c0.434,1.104,1.497,1.888,2.755,1.888
			c1.636,0,2.962-1.325,2.962-2.962c0-1.174-0.689-2.18-1.682-2.656v-3.543v-2.624c0-0.596-0.479-1.075-1.07-1.075h-2.977h-15.489
			c-0.302-0.794-0.928-1.422-1.722-1.724v-3.688v-1.587h1.673h18.547h2.865c0.593,0,1.073-0.481,1.073-1.075V87.92v-3.339
			c1.025-0.467,1.74-1.493,1.74-2.692c0-1.637-1.325-2.963-2.961-2.963c-1.257,0-2.324,0.785-2.754,1.89
			c-0.133,0.334-0.208,0.692-0.208,1.073c0,0.38,0.075,0.74,0.208,1.073c0.316,0.816,0.988,1.449,1.826,1.727v3.125v1.828h-1.857
			h-18.41h-2.816c-0.594,0-1.072,0.479-1.072,1.072v2.644v3.729c-1.089,0.438-1.856,1.5-1.856,2.745
			c0,1.637,1.325,2.962,2.961,2.962c1.244,0,2.307-0.769,2.743-1.854h15.532h1.88v1.712v3.222c-0.867,0.267-1.563,0.907-1.891,1.746
			h-15.512c-0.431-1.104-1.499-1.892-2.755-1.892c-1.636,0-2.961,1.326-2.961,2.963c0,1.245,0.771,2.308,1.856,2.744v3.772v2.953
			c0,0.593,0.479,1.073,1.072,1.073h2.69h19.133c0.323,0.67,0.885,1.198,1.583,1.472v3.527v1.682h-1.679h-28.83
			c-0.302-0.771-0.912-1.38-1.681-1.682V107.19c1.104-0.431,1.888-1.497,1.888-2.753s-0.784-2.322-1.888-2.755
			c-0.334-0.129-0.694-0.208-1.074-0.208c-0.379,0-0.739,0.079-1.073,0.208c-1.104,0.433-1.889,1.499-1.889,2.755
			s0.784,2.322,1.889,2.753v17.042c-1.104,0.431-1.889,1.498-1.889,2.753c0,1.638,1.326,2.964,2.962,2.964
			c1.256,0,2.322-0.784,2.755-1.89h28.83h2.753c0.594,0,1.074-0.479,1.074-1.074v-2.755v-3.525c1.104-0.432,1.89-1.498,1.89-2.755
			C487.524,116.311,486.197,114.985,484.561,114.985"/>
	</g>
	<g>
		<path fill="#616161" stroke="#616161" stroke-miterlimit="10" d="M401.044,62.668c0.545,0.685,1.369,1.13,2.312,1.13
			c1.637,0,2.961-1.324,2.961-2.961c0-0.006,0-0.01,0-0.015c7.165-3.433,11.994-10.005,12.894-18.212
			c1.185-0.388,2.045-1.488,2.045-2.803c0-1.31-0.854-2.405-2.03-2.799c-0.863-8.22-5.707-14.803-12.909-18.23
			c0.001-0.015,0.003-0.028,0.003-0.043c0-1.637-1.324-2.963-2.961-2.963c-0.956,0-1.799,0.461-2.339,1.164
			c-0.386,0.5-0.623,1.119-0.623,1.799c0,0.103,0.021,0.198,0.03,0.3c0.149,1.492,1.396,2.662,2.932,2.662
			c0.84,0,1.595-0.354,2.134-0.914c6.435,3.122,10.754,9.009,11.574,16.337c-1.021,0.467-1.733,1.491-1.733,2.688
			c0,1.188,0.707,2.209,1.72,2.68c-0.852,7.316-5.149,13.194-11.541,16.322c-0.54-0.571-1.302-0.938-2.151-0.938
			c-1.548,0-2.803,1.19-2.937,2.705c-1.928,0.444-3.955,0.704-6.097,0.704h-14.832c-0.302-0.771-0.908-1.381-1.681-1.682
			c-0.334-0.132-0.693-0.208-1.073-0.208c-0.382,0-0.74,0.076-1.074,0.208c-1.104,0.432-1.89,1.498-1.89,2.754
			c0,1.637,1.327,2.962,2.964,2.962c1.256,0,2.322-0.783,2.754-1.888h14.832C396.681,63.431,398.928,63.165,401.044,62.668"/>
		<path fill="#616161" stroke="#616161" stroke-miterlimit="10" d="M401.044,62.668c0.545,0.685,1.369,1.13,2.312,1.13
			c1.637,0,2.961-1.324,2.961-2.961c0-0.006,0-0.01,0-0.015c7.165-3.433,11.994-10.005,12.894-18.212
			c1.185-0.388,2.045-1.488,2.045-2.803c0-1.31-0.854-2.405-2.03-2.799c-0.863-8.22-5.707-14.803-12.909-18.23
			c0.001-0.015,0.003-0.028,0.003-0.043c0-1.637-1.324-2.963-2.961-2.963c-0.956,0-1.799,0.461-2.339,1.164
			c-0.386,0.5-0.623,1.119-0.623,1.799c0,0.103,0.021,0.198,0.03,0.3c0.149,1.492,1.396,2.662,2.932,2.662
			c0.84,0,1.595-0.354,2.134-0.914c6.435,3.122,10.754,9.009,11.574,16.337c-1.021,0.467-1.733,1.491-1.733,2.688
			c0,1.188,0.707,2.209,1.72,2.68c-0.852,7.316-5.149,13.194-11.541,16.322c-0.54-0.571-1.302-0.938-2.151-0.938
			c-1.548,0-2.803,1.19-2.937,2.705c-1.928,0.444-3.955,0.704-6.097,0.704h-14.832c-0.302-0.771-0.908-1.381-1.681-1.682
			c-0.334-0.132-0.693-0.208-1.073-0.208c-0.382,0-0.74,0.076-1.074,0.208c-1.104,0.432-1.89,1.498-1.89,2.754
			c0,1.637,1.327,2.962,2.964,2.962c1.256,0,2.322-0.783,2.754-1.888h14.832C396.681,63.431,398.928,63.165,401.044,62.668"/>
	</g>
	<g>
		<path fill="#616161" stroke="#616161" stroke-miterlimit="10" d="M379.492,18.335c0.129-0.335,0.207-0.695,0.207-1.075
			c0-0.379-0.078-0.738-0.207-1.072c-0.43-1.104-1.498-1.89-2.755-1.89c-1.636,0-2.962,1.327-2.962,2.962
			c0,1.257,0.784,2.323,1.889,2.756v17.04c-1.104,0.431-1.889,1.497-1.889,2.754c0,1.256,0.784,2.321,1.889,2.754
			c0.333,0.13,0.693,0.208,1.073,0.208s0.74-0.078,1.074-0.208c1.104-0.433,1.888-1.498,1.888-2.754
			c0-1.257-0.783-2.323-1.888-2.754v-17.04C378.581,19.714,379.192,19.104,379.492,18.335"/>
		<path fill="#616161" stroke="#616161" stroke-miterlimit="10" d="M379.492,18.335c0.129-0.335,0.207-0.695,0.207-1.075
			c0-0.379-0.078-0.738-0.207-1.072c-0.43-1.104-1.498-1.89-2.755-1.89c-1.636,0-2.962,1.327-2.962,2.962
			c0,1.257,0.784,2.323,1.889,2.756v17.04c-1.104,0.431-1.889,1.497-1.889,2.754c0,1.256,0.784,2.321,1.889,2.754
			c0.333,0.13,0.693,0.208,1.073,0.208s0.74-0.078,1.074-0.208c1.104-0.433,1.888-1.498,1.888-2.754
			c0-1.257-0.783-2.323-1.888-2.754v-17.04C378.581,19.714,379.192,19.104,379.492,18.335"/>
	</g>
	<g>
		<path fill="#616161" stroke="#616161" stroke-miterlimit="10" d="M399.074,123.914c-0.896,0-1.688,0.405-2.23,1.036
			c-6.992-3.054-11.859-9.562-12.713-17.66c1.023-0.466,1.744-1.493,1.744-2.693c0-1.193-0.711-2.217-1.728-2.687
			c0.886-7.973,5.691-14.396,12.604-17.513c0.543,0.692,1.377,1.146,2.322,1.146c1.578,0,2.856-1.236,2.945-2.793
			c0.004-0.058,0.018-0.109,0.018-0.168c0-0.729-0.271-1.385-0.708-1.9c-0.544-0.645-1.346-1.062-2.255-1.062
			c-1.531,0-2.778,1.171-2.932,2.665c-7.792,3.376-13.214,10.571-14.153,19.51c-1.182,0.391-2.042,1.489-2.042,2.802
			c0,1.305,0.854,2.399,2.023,2.796c0.898,9.023,6.339,16.283,14.155,19.616c0.069,1.572,1.356,2.829,2.946,2.829
			c0.997,0,1.872-0.492,2.409-1.247c0.346-0.483,0.554-1.073,0.554-1.715c0-0.134-0.021-0.262-0.039-0.393
			C401.805,125.035,400.576,123.914,399.074,123.914"/>
		<path fill="#616161" stroke="#616161" stroke-miterlimit="10" d="M399.074,123.914c-0.896,0-1.688,0.405-2.23,1.036
			c-6.992-3.054-11.859-9.562-12.713-17.66c1.023-0.466,1.744-1.493,1.744-2.693c0-1.193-0.711-2.217-1.728-2.687
			c0.886-7.973,5.691-14.396,12.604-17.513c0.543,0.692,1.377,1.146,2.322,1.146c1.578,0,2.856-1.236,2.945-2.793
			c0.004-0.058,0.018-0.109,0.018-0.168c0-0.729-0.271-1.385-0.708-1.9c-0.544-0.645-1.346-1.062-2.255-1.062
			c-1.531,0-2.778,1.171-2.932,2.665c-7.792,3.376-13.214,10.571-14.153,19.51c-1.182,0.391-2.042,1.489-2.042,2.802
			c0,1.305,0.854,2.399,2.023,2.796c0.898,9.023,6.339,16.283,14.155,19.616c0.069,1.572,1.356,2.829,2.946,2.829
			c0.997,0,1.872-0.492,2.409-1.247c0.346-0.483,0.554-1.073,0.554-1.715c0-0.134-0.021-0.262-0.039-0.393
			C401.805,125.035,400.576,123.914,399.074,123.914"/>
	</g>
	<g>
		<path fill="#616161" stroke="#616161" stroke-miterlimit="10" d="M356.971,124.021c-0.031,0-0.062,0.008-0.09,0.011l-8.953-21.04
			c0.603-0.543,0.989-1.321,0.989-2.196c0-1.635-1.326-2.962-2.964-2.962c-0.07,0-0.142,0.018-0.213,0.021
			c-0.766,0.057-1.446,0.394-1.939,0.921c-0.498,0.529-0.81,1.237-0.81,2.021c0,1.624,1.31,2.938,2.928,2.959l8.982,21.113
			c-0.299,0.291-0.531,0.646-0.686,1.043h-4.693h-2.205l-0.762-1.866l-1.923-4.72c0.609-0.542,1.003-1.325,1.003-2.205
			c0-1.637-1.326-2.963-2.962-2.963c-1.157,0-2.149,0.672-2.639,1.639h-14.054c-0.488-0.967-1.479-1.639-2.637-1.639
			c-1.636,0-2.963,1.326-2.963,2.963c0,0.831,0.345,1.579,0.896,2.116c0.517,0.501,1.209,0.812,1.979,0.835
			c0.028,0,0.059,0.011,0.09,0.011c1.348,0,2.472-0.906,2.831-2.14h13.666c0.353,1.216,1.454,2.107,2.775,2.134l1.992,4.888
			l0.988,2.428c0.165,0.402,0.56,0.668,0.994,0.668h2.927h4.693c0.431,1.104,1.497,1.89,2.753,1.89c1.636,0,2.963-1.326,2.963-2.964
			C359.934,125.347,358.607,124.021,356.971,124.021"/>
		<path fill="#616161" stroke="#616161" stroke-miterlimit="10" d="M356.971,124.021c-0.031,0-0.062,0.008-0.09,0.011l-8.953-21.04
			c0.603-0.543,0.989-1.321,0.989-2.196c0-1.635-1.326-2.962-2.964-2.962c-0.07,0-0.142,0.018-0.213,0.021
			c-0.766,0.057-1.446,0.394-1.939,0.921c-0.498,0.529-0.81,1.237-0.81,2.021c0,1.624,1.31,2.938,2.928,2.959l8.982,21.113
			c-0.299,0.291-0.531,0.646-0.686,1.043h-4.693h-2.205l-0.762-1.866l-1.923-4.72c0.609-0.542,1.003-1.325,1.003-2.205
			c0-1.637-1.326-2.963-2.962-2.963c-1.157,0-2.149,0.672-2.639,1.639h-14.054c-0.488-0.967-1.479-1.639-2.637-1.639
			c-1.636,0-2.963,1.326-2.963,2.963c0,0.831,0.345,1.579,0.896,2.116c0.517,0.501,1.209,0.812,1.979,0.835
			c0.028,0,0.059,0.011,0.09,0.011c1.348,0,2.472-0.906,2.831-2.14h13.666c0.353,1.216,1.454,2.107,2.775,2.134l1.992,4.888
			l0.988,2.428c0.165,0.402,0.56,0.668,0.994,0.668h2.927h4.693c0.431,1.104,1.497,1.89,2.753,1.89c1.636,0,2.963-1.326,2.963-2.964
			C359.934,125.347,358.607,124.021,356.971,124.021"/>
	</g>
	<g>
		<path fill="#616161" stroke="#616161" stroke-miterlimit="10" d="M320.386,103.757c1.637,0,2.963-1.325,2.963-2.962
			c0-0.855-0.369-1.621-0.948-2.163l6.008-14.118l0.797-1.875h1.82h3.812c0.431,1.104,1.498,1.889,2.755,1.889
			c0.047,0,0.093-0.012,0.141-0.014c0.767-0.037,1.459-0.355,1.964-0.868c0.528-0.534,0.856-1.271,0.856-2.081
			c0-1.637-1.324-2.962-2.961-2.962c-1.257,0-2.324,0.785-2.755,1.89h-3.812h-2.529c-0.432,0-0.816,0.257-0.985,0.652l-1.141,2.674
			l-5.964,14.019c-0.007-0.001-0.014-0.003-0.014-0.003c-1.646,0-2.969,1.327-2.969,2.963c0,0.805,0.32,1.531,0.844,2.063
			l-9.016,21.183c-1.538,0.106-2.761,1.376-2.761,2.941c0,1.637,1.327,2.963,2.963,2.963c1.258,0,2.323-0.784,2.756-1.89
			c0.131-0.334,0.209-0.693,0.209-1.073c0-0.381-0.078-0.739-0.209-1.073c-0.188-0.483-0.505-0.897-0.899-1.22l8.916-20.948
			C320.281,103.742,320.33,103.757,320.386,103.757"/>
		<path fill="#616161" stroke="#616161" stroke-miterlimit="10" d="M320.386,103.757c1.637,0,2.963-1.325,2.963-2.962
			c0-0.855-0.369-1.621-0.948-2.163l6.008-14.118l0.797-1.875h1.82h3.812c0.431,1.104,1.498,1.889,2.755,1.889
			c0.047,0,0.093-0.012,0.141-0.014c0.767-0.037,1.459-0.355,1.964-0.868c0.528-0.534,0.856-1.271,0.856-2.081
			c0-1.637-1.324-2.962-2.961-2.962c-1.257,0-2.324,0.785-2.755,1.89h-3.812h-2.529c-0.432,0-0.816,0.257-0.985,0.652l-1.141,2.674
			l-5.964,14.019c-0.007-0.001-0.014-0.003-0.014-0.003c-1.646,0-2.969,1.327-2.969,2.963c0,0.805,0.32,1.531,0.844,2.063
			l-9.016,21.183c-1.538,0.106-2.761,1.376-2.761,2.941c0,1.637,1.327,2.963,2.963,2.963c1.258,0,2.323-0.784,2.756-1.89
			c0.131-0.334,0.209-0.693,0.209-1.073c0-0.381-0.078-0.739-0.209-1.073c-0.188-0.483-0.505-0.897-0.899-1.22l8.916-20.948
			C320.281,103.742,320.33,103.757,320.386,103.757"/>
	</g>
	<g>
		<path fill="#616161" stroke="#616161" stroke-miterlimit="10" d="M204.854,100.129c-0.179-1.484-1.438-2.632-2.968-2.61
			c-0.919,0.015-1.725,0.451-2.259,1.116c-0.416,0.52-0.672,1.171-0.661,1.888c0.001,0.061,0.017,0.113,0.02,0.172
			c0.113,1.554,1.406,2.771,2.982,2.748c0.974-0.013,1.822-0.5,2.352-1.23c9.72,2.559,13.342,5.94,13.342,12.445v0.129
			c0,3.879-1.417,7.033-3.967,9.259c-0.451-0.27-0.977-0.427-1.539-0.418c-1.617,0.021-2.908,1.338-2.917,2.948
			c-2.046,0.723-4.405,1.116-7.062,1.116c-5.925,0-11.598-1.854-16.269-5.238c0.108-0.316,0.178-0.652,0.173-1.008
			c-0.006-0.51-0.154-0.979-0.389-1.396c-0.357-0.643-0.945-1.134-1.654-1.365c-0.305-0.101-0.624-0.162-0.96-0.159
			c-1.638,0.021-2.943,1.368-2.921,3.003c0.021,1.638,1.366,2.942,3.003,2.923c0.479-0.009,0.928-0.141,1.327-0.351
			c5.063,3.717,11.247,5.738,17.688,5.738c2.917,0,5.54-0.451,7.831-1.272c0.552,0.608,1.343,0.995,2.229,0.982
			c1.638-0.021,2.943-1.366,2.922-3.003c-0.006-0.285-0.062-0.554-0.142-0.812c3.062-2.619,4.79-6.38,4.79-10.946v-0.129
			C219.808,105.883,213.835,102.491,204.854,100.129"/>
		<path fill="#616161" stroke="#616161" stroke-miterlimit="10" d="M204.854,100.129c-0.179-1.484-1.438-2.632-2.968-2.61
			c-0.919,0.015-1.725,0.451-2.259,1.116c-0.416,0.52-0.672,1.171-0.661,1.888c0.001,0.061,0.017,0.113,0.02,0.172
			c0.113,1.554,1.406,2.771,2.982,2.748c0.974-0.013,1.822-0.5,2.352-1.23c9.72,2.559,13.342,5.94,13.342,12.445v0.129
			c0,3.879-1.417,7.033-3.967,9.259c-0.451-0.27-0.977-0.427-1.539-0.418c-1.617,0.021-2.908,1.338-2.917,2.948
			c-2.046,0.723-4.405,1.116-7.062,1.116c-5.925,0-11.598-1.854-16.269-5.238c0.108-0.316,0.178-0.652,0.173-1.008
			c-0.006-0.51-0.154-0.979-0.389-1.396c-0.357-0.643-0.945-1.134-1.654-1.365c-0.305-0.101-0.624-0.162-0.96-0.159
			c-1.638,0.021-2.943,1.368-2.921,3.003c0.021,1.638,1.366,2.942,3.003,2.923c0.479-0.009,0.928-0.141,1.327-0.351
			c5.063,3.717,11.247,5.738,17.688,5.738c2.917,0,5.54-0.451,7.831-1.272c0.552,0.608,1.343,0.995,2.229,0.982
			c1.638-0.021,2.943-1.366,2.922-3.003c-0.006-0.285-0.062-0.554-0.142-0.812c3.062-2.619,4.79-6.38,4.79-10.946v-0.129
			C219.808,105.883,213.835,102.491,204.854,100.129"/>
	</g>
	<g>
		<path fill="#616161" stroke="#616161" stroke-miterlimit="10" d="M216.986,85.103c-0.522,0.008-1.008,0.162-1.433,0.407
			c-4.378-2.778-9.378-4.204-14.922-4.204c-3.854,0-7.245,0.919-9.967,2.534c-0.479-0.312-1.049-0.489-1.664-0.482
			c-1.635,0.022-2.943,1.367-2.92,3.003c0.007,0.47,0.131,0.904,0.33,1.297c-1.688,2.305-2.639,5.131-2.639,8.315v0.129
			c0,9.777,6.838,12.51,15.208,14.684c0.091,1.572,1.397,2.812,2.988,2.791c0.965-0.014,1.808-0.494,2.338-1.217
			c0.368-0.502,0.592-1.115,0.583-1.786c-0.001-0.104-0.022-0.202-0.036-0.303c-0.173-1.488-1.436-2.641-2.968-2.618
			c-0.906,0.013-1.7,0.438-2.234,1.088c-9.294-2.413-13.729-4.981-13.729-12.639v-0.129c0-2.643,0.748-4.969,2.085-6.886
			c0.336,0.126,0.696,0.199,1.076,0.191c1.637-0.021,2.941-1.365,2.921-3.002c-0.003-0.246-0.045-0.479-0.106-0.709
			c2.365-1.356,5.33-2.116,8.733-2.116c5.04,0,9.596,1.255,13.583,3.729c-0.092,0.293-0.154,0.602-0.149,0.924
			c0.013,0.722,0.288,1.369,0.725,1.877c0.477,0.556,1.146,0.927,1.911,1.013c0.123,0.013,0.242,0.033,0.368,0.031
			c1.638-0.021,2.943-1.366,2.923-3.003C219.966,86.388,218.623,85.08,216.986,85.103"/>
		<path fill="#616161" stroke="#616161" stroke-miterlimit="10" d="M216.986,85.103c-0.522,0.008-1.008,0.162-1.433,0.407
			c-4.378-2.778-9.378-4.204-14.922-4.204c-3.854,0-7.245,0.919-9.967,2.534c-0.479-0.312-1.049-0.489-1.664-0.482
			c-1.635,0.022-2.943,1.367-2.92,3.003c0.007,0.47,0.131,0.904,0.33,1.297c-1.688,2.305-2.639,5.131-2.639,8.315v0.129
			c0,9.777,6.838,12.51,15.208,14.684c0.091,1.572,1.397,2.812,2.988,2.791c0.965-0.014,1.808-0.494,2.338-1.217
			c0.368-0.502,0.592-1.115,0.583-1.786c-0.001-0.104-0.022-0.202-0.036-0.303c-0.173-1.488-1.436-2.641-2.968-2.618
			c-0.906,0.013-1.7,0.438-2.234,1.088c-9.294-2.413-13.729-4.981-13.729-12.639v-0.129c0-2.643,0.748-4.969,2.085-6.886
			c0.336,0.126,0.696,0.199,1.076,0.191c1.637-0.021,2.941-1.365,2.921-3.002c-0.003-0.246-0.045-0.479-0.106-0.709
			c2.365-1.356,5.33-2.116,8.733-2.116c5.04,0,9.596,1.255,13.583,3.729c-0.092,0.293-0.154,0.602-0.149,0.924
			c0.013,0.722,0.288,1.369,0.725,1.877c0.477,0.556,1.146,0.927,1.911,1.013c0.123,0.013,0.242,0.033,0.368,0.031
			c1.638-0.021,2.943-1.366,2.923-3.003C219.966,86.388,218.623,85.08,216.986,85.103"/>
	</g>
	<g>
		<path fill="#616161" stroke="#616161" stroke-miterlimit="10" d="M253.414,104.435c0-1.256-0.784-2.323-1.891-2.754V84.64
			c0.771-0.302,1.38-0.91,1.683-1.681h15.671c1.535,0,2.974,0.153,4.328,0.422c0.291,1.328,1.471,2.322,2.888,2.322
			c0.706,0,1.345-0.258,1.853-0.668c0.577-0.468,0.972-1.139,1.07-1.908c0.02-0.127,0.039-0.253,0.039-0.387
			c0-1.635-1.326-2.962-2.962-2.962c-1.089,0-2.032,0.595-2.546,1.472c-1.466-0.277-3.021-0.438-4.67-0.438h-15.671
			c-0.434-1.104-1.497-1.89-2.753-1.89c-1.639,0-2.965,1.327-2.965,2.963c0,1.256,0.785,2.322,1.891,2.754v17.041
			c-1.104,0.431-1.891,1.498-1.891,2.754s0.785,2.321,1.891,2.754v17.04c-1.104,0.433-1.891,1.498-1.891,2.754
			c0,1.638,1.326,2.963,2.965,2.963c1.256,0,2.319-0.784,2.753-1.889c0.131-0.334,0.208-0.694,0.208-1.074s-0.077-0.738-0.208-1.072
			c-0.303-0.771-0.91-1.381-1.683-1.682v-17.04C252.629,106.757,253.414,105.69,253.414,104.435"/>
		<path fill="#616161" stroke="#616161" stroke-miterlimit="10" d="M253.414,104.435c0-1.256-0.784-2.323-1.891-2.754V84.64
			c0.771-0.302,1.38-0.91,1.683-1.681h15.671c1.535,0,2.974,0.153,4.328,0.422c0.291,1.328,1.471,2.322,2.888,2.322
			c0.706,0,1.345-0.258,1.853-0.668c0.577-0.468,0.972-1.139,1.07-1.908c0.02-0.127,0.039-0.253,0.039-0.387
			c0-1.635-1.326-2.962-2.962-2.962c-1.089,0-2.032,0.595-2.546,1.472c-1.466-0.277-3.021-0.438-4.67-0.438h-15.671
			c-0.434-1.104-1.497-1.89-2.753-1.89c-1.639,0-2.965,1.327-2.965,2.963c0,1.256,0.785,2.322,1.891,2.754v17.041
			c-1.104,0.431-1.891,1.498-1.891,2.754s0.785,2.321,1.891,2.754v17.04c-1.104,0.433-1.891,1.498-1.891,2.754
			c0,1.638,1.326,2.963,2.965,2.963c1.256,0,2.319-0.784,2.753-1.889c0.131-0.334,0.208-0.694,0.208-1.074s-0.077-0.738-0.208-1.072
			c-0.303-0.771-0.91-1.381-1.683-1.682v-17.04C252.629,106.757,253.414,105.69,253.414,104.435"/>
	</g>
	<g>
		<path fill="#616161" stroke="#616161" stroke-miterlimit="10" d="M287.036,94.925c-0.284-0.091-0.581-0.151-0.896-0.151
			c-0.453,0-0.876,0.108-1.259,0.291c-1.005,0.476-1.703,1.487-1.703,2.671c0,1.159,0.673,2.153,1.646,2.641
			c-0.718,4.194-3.076,7.499-6.695,9.568c-0.531-0.506-1.246-0.819-2.038-0.819c-1.546,0-2.801,1.189-2.937,2.702
			c-1.616,0.359-3.369,0.555-5.246,0.555h-4.97c-0.509-0.896-1.461-1.512-2.566-1.512c-1.637,0-2.962,1.325-2.962,2.962
			c0,1.256,0.783,2.323,1.889,2.755c0.334,0.129,0.693,0.207,1.073,0.207c0.379,0,0.739-0.078,1.071-0.207
			c0.894-0.35,1.568-1.112,1.8-2.059h4.665c2.096,0,4.049-0.221,5.857-0.626c0.542,0.691,1.377,1.146,2.323,1.146
			c1.636,0,2.963-1.326,2.963-2.963c0-0.046-0.012-0.09-0.015-0.136c4.344-2.389,7.146-6.336,7.933-11.386
			c1.229-0.36,2.132-1.482,2.132-2.83C289.104,96.411,288.232,95.304,287.036,94.925"/>
		<path fill="#616161" stroke="#616161" stroke-miterlimit="10" d="M287.036,94.925c-0.284-0.091-0.581-0.151-0.896-0.151
			c-0.453,0-0.876,0.108-1.259,0.291c-1.005,0.476-1.703,1.487-1.703,2.671c0,1.159,0.673,2.153,1.646,2.641
			c-0.718,4.194-3.076,7.499-6.695,9.568c-0.531-0.506-1.246-0.819-2.038-0.819c-1.546,0-2.801,1.189-2.937,2.702
			c-1.616,0.359-3.369,0.555-5.246,0.555h-4.97c-0.509-0.896-1.461-1.512-2.566-1.512c-1.637,0-2.962,1.325-2.962,2.962
			c0,1.256,0.783,2.323,1.889,2.755c0.334,0.129,0.693,0.207,1.073,0.207c0.379,0,0.739-0.078,1.071-0.207
			c0.894-0.35,1.568-1.112,1.8-2.059h4.665c2.096,0,4.049-0.221,5.857-0.626c0.542,0.691,1.377,1.146,2.323,1.146
			c1.636,0,2.963-1.326,2.963-2.963c0-0.046-0.012-0.09-0.015-0.136c4.344-2.389,7.146-6.336,7.933-11.386
			c1.229-0.36,2.132-1.482,2.132-2.83C289.104,96.411,288.232,95.304,287.036,94.925"/>
	</g>
	<g>
		<path fill="#616161" stroke="#616161" stroke-miterlimit="10" d="M250.127,20.015c0.332,0.129,0.691,0.208,1.074,0.208
			c0.378,0,0.737-0.079,1.071-0.208c0.771-0.302,1.379-0.91,1.681-1.682h4.426c0.299,0.767,0.904,1.375,1.669,1.676v12.653
			c-1.099,0.434-1.879,1.497-1.879,2.75c0,1.251,0.78,2.315,1.879,2.749v12.651c-1.099,0.436-1.879,1.499-1.879,2.751
			c0,1.637,1.327,2.961,2.964,2.961c1.339,0,2.459-0.896,2.824-2.114c0.08-0.271,0.139-0.551,0.139-0.847
			c0-0.471-0.119-0.906-0.312-1.302c-0.327-0.665-0.892-1.188-1.589-1.456V38.171c1.11-0.429,1.901-1.498,1.901-2.758
			c0-1.262-0.791-2.33-1.901-2.758V20.018c1.11-0.429,1.901-1.497,1.901-2.758c0-1.637-1.327-2.962-2.963-2.962
			c-1.257,0-2.322,0.784-2.754,1.889h-4.426c-0.433-1.104-1.497-1.889-2.752-1.889c-1.64,0-2.966,1.325-2.966,2.962
			C248.238,18.517,249.024,19.583,250.127,20.015"/>
		<path fill="#616161" stroke="#616161" stroke-miterlimit="10" d="M250.127,20.015c0.332,0.129,0.691,0.208,1.074,0.208
			c0.378,0,0.737-0.079,1.071-0.208c0.771-0.302,1.379-0.91,1.681-1.682h4.426c0.299,0.767,0.904,1.375,1.669,1.676v12.653
			c-1.099,0.434-1.879,1.497-1.879,2.75c0,1.251,0.78,2.315,1.879,2.749v12.651c-1.099,0.436-1.879,1.499-1.879,2.751
			c0,1.637,1.327,2.961,2.964,2.961c1.339,0,2.459-0.896,2.824-2.114c0.08-0.271,0.139-0.551,0.139-0.847
			c0-0.471-0.119-0.906-0.312-1.302c-0.327-0.665-0.892-1.188-1.589-1.456V38.171c1.11-0.429,1.901-1.498,1.901-2.758
			c0-1.262-0.791-2.33-1.901-2.758V20.018c1.11-0.429,1.901-1.497,1.901-2.758c0-1.637-1.327-2.962-2.963-2.962
			c-1.257,0-2.322,0.784-2.754,1.889h-4.426c-0.433-1.104-1.497-1.889-2.752-1.889c-1.64,0-2.966,1.325-2.966,2.962
			C248.238,18.517,249.024,19.583,250.127,20.015"/>
	</g>
	<g>
		<path fill="#616161" stroke="#616161" stroke-miterlimit="10" d="M308.414,30.76c0,1.638,1.327,2.963,2.966,2.963
			c0.186,0,0.366-0.021,0.545-0.056l5.871,9.251c-0.312,0.467-0.492,1.025-0.492,1.629c0,1.198,0.714,2.226,1.735,2.69v12.154
			c-0.845,0.521-1.41,1.448-1.41,2.515c0,1.637,1.323,2.962,2.962,2.962c1.078,0,2.012-0.581,2.528-1.442
			c0.271-0.444,0.434-0.961,0.434-1.52c0-0.217-0.026-0.426-0.069-0.629c-0.248-1.141-1.146-2.037-2.295-2.272V47.349
			c1.181-0.392,2.039-1.489,2.039-2.803c0-1.635-1.328-2.962-2.963-2.962c-0.246,0-0.482,0.039-0.71,0.097l-5.812-9.155
			c0.37-0.492,0.598-1.102,0.598-1.767c0-1.636-1.326-2.961-2.961-2.961c-0.204,0-0.406,0.021-0.6,0.061l-5.415-8.539l-0.63-0.989
			h1.263h5.589c0.431,1.104,1.497,1.889,2.754,1.889c0.179,0,0.352-0.021,0.52-0.053c0.746-0.133,1.392-0.545,1.831-1.125
			c0.379-0.498,0.612-1.11,0.612-1.784c0-1.636-1.328-2.963-2.963-2.963c-1.258,0-2.323,0.785-2.755,1.89h-5.588h-3.214
			c-0.393,0-0.753,0.213-0.94,0.558c-0.189,0.344-0.177,0.762,0.034,1.093l1.504,2.373l5.601,8.826
			C308.63,29.518,308.414,30.112,308.414,30.76"/>
		<path fill="#616161" stroke="#616161" stroke-miterlimit="10" d="M308.414,30.76c0,1.638,1.327,2.963,2.966,2.963
			c0.186,0,0.366-0.021,0.545-0.056l5.871,9.251c-0.312,0.467-0.492,1.025-0.492,1.629c0,1.198,0.714,2.226,1.735,2.69v12.154
			c-0.845,0.521-1.41,1.448-1.41,2.515c0,1.637,1.323,2.962,2.962,2.962c1.078,0,2.012-0.581,2.528-1.442
			c0.271-0.444,0.434-0.961,0.434-1.52c0-0.217-0.026-0.426-0.069-0.629c-0.248-1.141-1.146-2.037-2.295-2.272V47.349
			c1.181-0.392,2.039-1.489,2.039-2.803c0-1.635-1.328-2.962-2.963-2.962c-0.246,0-0.482,0.039-0.71,0.097l-5.812-9.155
			c0.37-0.492,0.598-1.102,0.598-1.767c0-1.636-1.326-2.961-2.961-2.961c-0.204,0-0.406,0.021-0.6,0.061l-5.415-8.539l-0.63-0.989
			h1.263h5.589c0.431,1.104,1.497,1.889,2.754,1.889c0.179,0,0.352-0.021,0.52-0.053c0.746-0.133,1.392-0.545,1.831-1.125
			c0.379-0.498,0.612-1.11,0.612-1.784c0-1.636-1.328-2.963-2.963-2.963c-1.258,0-2.323,0.785-2.755,1.89h-5.588h-3.214
			c-0.393,0-0.753,0.213-0.94,0.558c-0.189,0.344-0.177,0.762,0.034,1.093l1.504,2.373l5.601,8.826
			C308.63,29.518,308.414,30.112,308.414,30.76"/>
	</g>
	<g>
		<path fill="#616161" stroke="#616161" stroke-miterlimit="10" d="M196.484,58.583c-0.896,0-1.688,0.407-2.23,1.036
			c-6.993-3.054-11.86-9.562-12.713-17.66c1.024-0.466,1.745-1.493,1.745-2.693c0-1.192-0.71-2.217-1.729-2.687
			c0.886-7.973,5.692-14.396,12.604-17.513c0.543,0.692,1.377,1.146,2.322,1.146c1.578,0,2.856-1.236,2.945-2.794
			c1.417-0.258,2.638-0.4,4.156-0.4c5.853,0,10.309,1.326,14.312,4.319c-0.229,0.423-0.377,0.899-0.377,1.416
			c0,0.78,0.311,1.485,0.804,2.015c0.513,0.55,1.229,0.898,2.03,0.937c0.044,0.002,0.086,0.013,0.129,0.013
			c1.639,0,2.963-1.325,2.963-2.962c0-1.636-1.324-2.962-2.963-2.962c-0.307,0-0.599,0.061-0.878,0.146
			c-4.479-3.481-9.545-5.068-16.021-5.068c-1.76,0-3.212,0.164-4.849,0.479c-0.544-0.645-1.347-1.062-2.255-1.062
			c-1.531,0-2.778,1.17-2.932,2.664c-7.792,3.376-13.213,10.571-14.154,19.51c-1.182,0.391-2.041,1.489-2.041,2.802
			c0,1.305,0.853,2.399,2.023,2.795c0.898,9.024,6.338,16.284,14.155,19.617c0.069,1.572,1.356,2.829,2.946,2.829
			c0.997,0,1.872-0.493,2.409-1.247c0.346-0.483,0.554-1.074,0.554-1.715c0-0.134-0.021-0.262-0.039-0.393
			C199.213,59.704,197.986,58.583,196.484,58.583"/>
		<path fill="#616161" stroke="#616161" stroke-miterlimit="10" d="M196.484,58.583c-0.896,0-1.688,0.407-2.23,1.036
			c-6.993-3.054-11.86-9.562-12.713-17.66c1.024-0.466,1.745-1.493,1.745-2.693c0-1.192-0.71-2.217-1.729-2.687
			c0.886-7.973,5.692-14.396,12.604-17.513c0.543,0.692,1.377,1.146,2.322,1.146c1.578,0,2.856-1.236,2.945-2.794
			c1.417-0.258,2.638-0.4,4.156-0.4c5.853,0,10.309,1.326,14.312,4.319c-0.229,0.423-0.377,0.899-0.377,1.416
			c0,0.78,0.311,1.485,0.804,2.015c0.513,0.55,1.229,0.898,2.03,0.937c0.044,0.002,0.086,0.013,0.129,0.013
			c1.639,0,2.963-1.325,2.963-2.962c0-1.636-1.324-2.962-2.963-2.962c-0.307,0-0.599,0.061-0.878,0.146
			c-4.479-3.481-9.545-5.068-16.021-5.068c-1.76,0-3.212,0.164-4.849,0.479c-0.544-0.645-1.347-1.062-2.255-1.062
			c-1.531,0-2.778,1.17-2.932,2.664c-7.792,3.376-13.213,10.571-14.154,19.51c-1.182,0.391-2.041,1.489-2.041,2.802
			c0,1.305,0.853,2.399,2.023,2.795c0.898,9.024,6.338,16.284,14.155,19.617c0.069,1.572,1.356,2.829,2.946,2.829
			c0.997,0,1.872-0.493,2.409-1.247c0.346-0.483,0.554-1.074,0.554-1.715c0-0.134-0.021-0.262-0.039-0.393
			C199.213,59.704,197.986,58.583,196.484,58.583"/>
	</g>
</g>
<g>
	<g>
		<path fill="none" stroke="#70AABA" stroke-width="2" stroke-linecap="round" stroke-miterlimit="10" d="M147.007,58.475
			l-12.688-7.437c-0.339-0.198-0.757-0.194-1.092,0.009l-12.688,7.729c-0.315,0.19-0.512,0.537-0.512,0.909v14.6
			c0,0.379,0.202,0.73,0.531,0.921l12.779,7.411c0.166,0.097,0.351,0.144,0.536,0.144c0.184,0,0.372-0.049,0.54-0.146l12.595-7.411
			c0.324-0.19,0.522-0.541,0.522-0.918V59.393C147.532,59.016,147.332,58.665,147.007,58.475"/>
		<path fill="none" stroke="#70AABA" stroke-width="2" stroke-linecap="round" stroke-miterlimit="10" d="M147.007,58.475
			l-12.688-7.437c-0.339-0.198-0.757-0.194-1.092,0.009l-12.688,7.729c-0.315,0.19-0.512,0.537-0.512,0.909v14.6
			c0,0.379,0.202,0.73,0.531,0.921l12.779,7.411c0.166,0.097,0.351,0.144,0.536,0.144c0.184,0,0.372-0.049,0.54-0.146l12.595-7.411
			c0.324-0.19,0.522-0.541,0.522-0.918V59.393C147.532,59.016,147.332,58.665,147.007,58.475"/>
	</g>
	<g>
		
			<line fill="none" stroke="#70AABA" stroke-width="2" stroke-linecap="round" stroke-miterlimit="10" x1="133.78" y1="66.831" x2="121.219" y2="59.725"/>
		
			<line fill="none" stroke="#70AABA" stroke-width="2" stroke-linecap="round" stroke-miterlimit="10" x1="133.78" y1="66.831" x2="121.219" y2="59.725"/>
	</g>
	<g>
		<polyline fill="none" stroke="#70AABA" stroke-width="2" stroke-linecap="round" stroke-miterlimit="10" points="146.551,59.487 
			133.78,66.836 133.78,81.543 		"/>
		<polyline fill="none" stroke="#70AABA" stroke-width="2" stroke-linecap="round" stroke-miterlimit="10" points="146.551,59.487 
			133.78,66.836 133.78,81.543 		"/>
	</g>
	<g>
		<path fill="#70AABA" stroke="#70AABA" stroke-width="1.2" stroke-linecap="round" stroke-miterlimit="10" d="M447.186,39.809
			c0,1.256,0.786,2.322,1.89,2.754c0.334,0.13,0.693,0.208,1.073,0.208c0.379,0,0.739-0.078,1.072-0.208
			c1.104-0.432,1.889-1.498,1.889-2.754c0-1.257-0.785-2.324-1.889-2.754v-17.04c0.771-0.302,1.381-0.91,1.681-1.682h28.361
			c0.316,0.817,0.99,1.448,1.827,1.728c0.293,0.098,0.601,0.162,0.927,0.162c0.436,0,0.848-0.102,1.222-0.271
			c1.024-0.466,1.741-1.492,1.741-2.691c0-1.637-1.327-2.962-2.963-2.962c-1.256,0-2.322,0.784-2.754,1.889h-28.361
			c-0.431-1.104-1.497-1.889-2.753-1.889c-1.637,0-2.963,1.325-2.963,2.962c0,1.257,0.786,2.322,1.89,2.755v17.04
			C447.972,37.484,447.186,38.552,447.186,39.809"/>
		<path fill="#70AABA" stroke="#70AABA" stroke-miterlimit="10" d="M447.186,39.809c0,1.256,0.786,2.322,1.89,2.754
			c0.334,0.13,0.693,0.208,1.073,0.208c0.379,0,0.739-0.078,1.072-0.208c1.104-0.432,1.889-1.498,1.889-2.754
			c0-1.257-0.785-2.324-1.889-2.754v-17.04c0.771-0.302,1.381-0.91,1.681-1.682h28.361c0.316,0.817,0.99,1.448,1.827,1.728
			c0.293,0.098,0.601,0.162,0.927,0.162c0.436,0,0.848-0.102,1.222-0.271c1.024-0.466,1.741-1.492,1.741-2.691
			c0-1.637-1.327-2.962-2.963-2.962c-1.256,0-2.322,0.784-2.754,1.889h-28.361c-0.431-1.104-1.497-1.889-2.753-1.889
			c-1.637,0-2.963,1.325-2.963,2.962c0,1.257,0.786,2.322,1.89,2.755v17.04C447.972,37.484,447.186,38.552,447.186,39.809"/>
	</g>
	<g>
		<path fill="#70AABA" stroke="#70AABA" stroke-width="1.2" stroke-linecap="round" stroke-miterlimit="10" d="M404.956,39.809
			c0,1.173,0.688,2.177,1.678,2.655c0.391,0.189,0.821,0.307,1.287,0.307c0.298,0,0.576-0.059,0.851-0.14
			c1.219-0.367,2.111-1.483,2.111-2.822c0-1.345-0.899-2.466-2.126-2.827c-1.176-7.094-6.773-11.84-14.433-11.84h-4.912
			c-0.431-1.104-1.497-1.89-2.754-1.89c-1.635,0-2.962,1.325-2.962,2.962c0,1.257,0.784,2.322,1.89,2.754
			c0.334,0.132,0.693,0.208,1.072,0.208c0.382,0,0.741-0.076,1.074-0.208c0.771-0.301,1.379-0.91,1.68-1.681h4.912
			c6.567,0,11.243,3.869,12.295,9.871C405.639,37.641,404.956,38.641,404.956,39.809"/>
		<path fill="#70AABA" stroke="#70AABA" stroke-miterlimit="10" d="M404.956,39.809c0,1.173,0.688,2.177,1.678,2.655
			c0.391,0.189,0.821,0.307,1.287,0.307c0.298,0,0.576-0.059,0.851-0.14c1.219-0.367,2.111-1.483,2.111-2.822
			c0-1.345-0.899-2.466-2.126-2.827c-1.176-7.094-6.773-11.84-14.433-11.84h-4.912c-0.431-1.104-1.497-1.89-2.754-1.89
			c-1.635,0-2.962,1.325-2.962,2.962c0,1.257,0.784,2.322,1.89,2.754c0.334,0.132,0.693,0.208,1.072,0.208
			c0.382,0,0.741-0.076,1.074-0.208c0.771-0.301,1.379-0.91,1.68-1.681h4.912c6.567,0,11.243,3.869,12.295,9.871
			C405.639,37.641,404.956,38.641,404.956,39.809"/>
	</g>
	<g>
		<path fill="#70AABA" stroke="#70AABA" stroke-width="1.2" stroke-linecap="round" stroke-miterlimit="10" d="M418.366,111.251
			c-1.636,0-2.963,1.326-2.963,2.963c0,0.074,0.02,0.146,0.023,0.219c-2.683,2.08-5.312,3.265-9.065,3.265
			c-6.025,0-10.746-4.372-11.787-10.521c0.913-0.504,1.539-1.465,1.539-2.58c0-1.122-0.631-2.087-1.55-2.59
			c1.006-6.135,5.738-10.512,11.798-10.512c3.008,0,5.721,0.942,8.531,2.969c-0.029,0.167-0.052,0.336-0.052,0.513
			c0,1.637,1.326,2.962,2.963,2.962c1.636,0,2.961-1.325,2.961-2.962c0-0.331-0.067-0.646-0.167-0.941
			c-0.242-0.719-0.746-1.307-1.404-1.658c-0.416-0.226-0.886-0.361-1.39-0.361c-0.674,0-1.287,0.232-1.785,0.61
			c-3.143-2.236-6.215-3.274-9.657-3.274c-7.056,0-12.742,5.256-13.917,12.379c-1.294,0.317-2.256,1.479-2.256,2.868
			c0,1.393,0.966,2.554,2.26,2.868c1.182,7.224,6.765,12.378,13.913,12.378c4.154,0,7.141-1.282,10.021-3.442
			c0.524,0.479,1.218,0.775,1.981,0.775c0.569,0,1.098-0.169,1.548-0.446c0.635-0.391,1.102-1.008,1.302-1.74
			c0.065-0.248,0.112-0.506,0.112-0.773C421.328,112.577,420.003,111.251,418.366,111.251"/>
		<path fill="#70AABA" stroke="#70AABA" stroke-miterlimit="10" d="M418.366,111.251c-1.636,0-2.963,1.326-2.963,2.963
			c0,0.074,0.02,0.146,0.023,0.219c-2.683,2.08-5.312,3.265-9.065,3.265c-6.025,0-10.746-4.372-11.787-10.521
			c0.913-0.504,1.539-1.465,1.539-2.58c0-1.122-0.631-2.087-1.55-2.59c1.006-6.135,5.738-10.512,11.798-10.512
			c3.008,0,5.721,0.942,8.531,2.969c-0.029,0.167-0.052,0.336-0.052,0.513c0,1.637,1.326,2.962,2.963,2.962
			c1.636,0,2.961-1.325,2.961-2.962c0-0.331-0.067-0.646-0.167-0.941c-0.242-0.719-0.746-1.307-1.404-1.658
			c-0.416-0.226-0.886-0.361-1.39-0.361c-0.674,0-1.287,0.232-1.785,0.61c-3.143-2.236-6.215-3.274-9.657-3.274
			c-7.056,0-12.742,5.256-13.917,12.379c-1.294,0.317-2.256,1.479-2.256,2.868c0,1.393,0.966,2.554,2.26,2.868
			c1.182,7.224,6.765,12.378,13.913,12.378c4.154,0,7.141-1.282,10.021-3.442c0.524,0.479,1.218,0.775,1.981,0.775
			c0.569,0,1.098-0.169,1.548-0.446c0.635-0.391,1.102-1.008,1.302-1.74c0.065-0.248,0.112-0.506,0.112-0.773
			C421.328,112.577,420.003,111.251,418.366,111.251"/>
	</g>
	<g>
		<path fill="#70AABA" stroke="#70AABA" stroke-miterlimit="10" d="M329.701,107.033c-0.156-0.408-0.401-0.771-0.715-1.068
			c-0.521-0.493-1.217-0.802-1.985-0.814c-0.021,0-0.033-0.005-0.053-0.005c-1.637,0-2.962,1.326-2.962,2.962
			c0,1.637,1.325,2.963,2.962,2.963c1.257,0,2.323-0.784,2.753-1.889h6.479c0.429,1.104,1.495,1.889,2.752,1.889
			c1.637,0,2.962-1.326,2.962-2.963c0-1.636-1.325-2.962-2.962-2.962c-0.02,0-0.033,0.005-0.051,0.005l-3.786-9.242
			c0.497-0.53,0.808-1.238,0.808-2.021c0-1.637-1.327-2.963-2.962-2.963s-2.962,1.326-2.962,2.963c0,0.784,0.312,1.491,0.808,2.021
			c0.495,0.526,1.183,0.863,1.945,0.919c0.069,0.005,0.139,0.021,0.209,0.021c0.072,0,0.139-0.018,0.21-0.021l3.743,9.141
			c-0.311,0.299-0.555,0.66-0.714,1.068L329.701,107.033L329.701,107.033z"/>
		<path fill="#70AABA" stroke="#70AABA" stroke-miterlimit="10" d="M329.701,107.033c-0.156-0.408-0.401-0.771-0.715-1.068
			c-0.521-0.493-1.217-0.802-1.985-0.814c-0.021,0-0.033-0.005-0.053-0.005c-1.637,0-2.962,1.326-2.962,2.962
			c0,1.637,1.325,2.963,2.962,2.963c1.257,0,2.323-0.784,2.753-1.889h6.479c0.429,1.104,1.495,1.889,2.752,1.889
			c1.637,0,2.962-1.326,2.962-2.963c0-1.636-1.325-2.962-2.962-2.962c-0.02,0-0.033,0.005-0.051,0.005l-3.786-9.242
			c0.497-0.53,0.808-1.238,0.808-2.021c0-1.637-1.327-2.963-2.962-2.963s-2.962,1.326-2.962,2.963c0,0.784,0.312,1.491,0.808,2.021
			c0.495,0.526,1.183,0.863,1.945,0.919c0.069,0.005,0.139,0.021,0.209,0.021c0.072,0,0.139-0.018,0.21-0.021l3.743,9.141
			c-0.311,0.299-0.555,0.66-0.714,1.068L329.701,107.033L329.701,107.033z"/>
	</g>
	<g>
		<path fill="#70AABA" stroke="#70AABA" stroke-width="1.2" stroke-linecap="round" stroke-miterlimit="10" d="M273.13,97.734
			c0,1.054,0.552,1.97,1.378,2.495c0.459,0.292,1,0.467,1.584,0.467c0.197,0,0.389-0.021,0.576-0.059
			c1.356-0.269,2.386-1.465,2.386-2.903c0-1.42-1-2.604-2.334-2.893c-1.09-3.222-4.161-5.074-8.682-5.074h-4.912
			c-0.432-1.104-1.497-1.89-2.754-1.89c-1.637,0-2.961,1.326-2.961,2.963c0,1.257,0.782,2.322,1.888,2.755
			c0.334,0.13,0.693,0.206,1.073,0.206s0.738-0.076,1.072-0.206c0.771-0.302,1.381-0.911,1.682-1.682h4.912
			c2.1,0,5.342,0.489,6.523,3.294C273.708,95.729,273.13,96.66,273.13,97.734"/>
		<path fill="#70AABA" stroke="#70AABA" stroke-miterlimit="10" d="M273.13,97.734c0,1.054,0.552,1.97,1.378,2.495
			c0.459,0.292,1,0.467,1.584,0.467c0.197,0,0.389-0.021,0.576-0.059c1.356-0.269,2.386-1.465,2.386-2.903
			c0-1.42-1-2.604-2.334-2.893c-1.09-3.222-4.161-5.074-8.682-5.074h-4.912c-0.432-1.104-1.497-1.89-2.754-1.89
			c-1.637,0-2.961,1.326-2.961,2.963c0,1.257,0.782,2.322,1.888,2.755c0.334,0.13,0.693,0.206,1.073,0.206s0.738-0.076,1.072-0.206
			c0.771-0.302,1.381-0.911,1.682-1.682h4.912c2.1,0,5.342,0.489,6.523,3.294C273.708,95.729,273.13,96.66,273.13,97.734"/>
	</g>
	<g>
		<path fill="#70AABA" stroke="#70AABA" stroke-width="1.2" stroke-linecap="round" stroke-miterlimit="10" d="M251.202,65.318
			c1.255,0,2.319-0.783,2.752-1.888h26.896h2.754c0.594,0,1.074-0.479,1.074-1.074v-2.753v-3.284
			c1.104-0.432,1.889-1.498,1.889-2.754c0-1.636-1.323-2.963-2.963-2.963c-1.166,0-2.165,0.682-2.646,1.662
			c-0.194,0.395-0.314,0.83-0.314,1.301c0,0.296,0.06,0.576,0.139,0.847c0.263,0.874,0.906,1.578,1.752,1.907v3.284v1.682h-1.683
			h-26.896c-0.302-0.771-0.909-1.383-1.681-1.682c-0.334-0.131-0.692-0.208-1.071-0.208c-0.383,0-0.742,0.077-1.074,0.208
			c-1.104,0.431-1.892,1.497-1.892,2.753C248.238,63.993,249.564,65.318,251.202,65.318"/>
		<path fill="#70AABA" stroke="#70AABA" stroke-miterlimit="10" d="M251.202,65.318c1.255,0,2.319-0.783,2.752-1.888h26.896h2.754
			c0.594,0,1.074-0.479,1.074-1.074v-2.753v-3.284c1.104-0.432,1.889-1.498,1.889-2.754c0-1.636-1.323-2.963-2.963-2.963
			c-1.166,0-2.165,0.682-2.646,1.662c-0.194,0.395-0.314,0.83-0.314,1.301c0,0.296,0.06,0.576,0.139,0.847
			c0.263,0.874,0.906,1.578,1.752,1.907v3.284v1.682h-1.683h-26.896c-0.302-0.771-0.909-1.383-1.681-1.682
			c-0.334-0.131-0.692-0.208-1.071-0.208c-0.383,0-0.742,0.077-1.074,0.208c-1.104,0.431-1.892,1.497-1.892,2.753
			C248.238,63.993,249.564,65.318,251.202,65.318"/>
	</g>
	<g>
		<path fill="#70AABA" stroke="#70AABA" stroke-width="1.2" stroke-linecap="round" stroke-miterlimit="10" d="M349.694,17.256
			c0-1.636-1.325-2.962-2.963-2.962c-1.255,0-2.322,0.784-2.751,1.889h-5.32h-2.566c-0.374,0-0.727,0.194-0.918,0.519l-1.5,2.481
			l-7.183,11.862c-0.423-0.231-0.897-0.377-1.417-0.377c-0.466,0-0.898,0.117-1.292,0.31c-0.697,0.341-1.236,0.943-1.495,1.688
			c-0.105,0.305-0.176,0.627-0.176,0.967c0,1.638,1.326,2.964,2.963,2.964c1.638,0,2.96-1.326,2.96-2.964
			c0-0.273-0.049-0.536-0.116-0.788l7.655-12.655l1.123-1.855h1.962h5.32c0.16,0.416,0.413,0.783,0.733,1.083l-5.391,8.433
			c-0.148-0.022-0.301-0.047-0.458-0.047c-1.635,0-2.962,1.327-2.962,2.963c0,0.61,0.188,1.18,0.504,1.649l-5.896,9.229
			c-0.174-0.031-0.352-0.055-0.531-0.055c-1.636,0-2.962,1.326-2.962,2.963c0,1.275,0.811,2.354,1.941,2.771
			c0.318,0.116,0.658,0.191,1.021,0.191c0.4,0,0.78-0.082,1.128-0.227c1.076-0.443,1.833-1.5,1.833-2.736
			c0-0.671-0.229-1.28-0.604-1.776l5.838-9.14c0.223,0.055,0.452,0.092,0.689,0.092c1.639,0,2.963-1.327,2.963-2.963
			c0-0.695-0.25-1.324-0.647-1.83l5.565-8.714C348.376,20.208,349.694,18.887,349.694,17.256"/>
		<path fill="#70AABA" stroke="#70AABA" stroke-miterlimit="10" d="M349.694,17.256c0-1.636-1.325-2.962-2.963-2.962
			c-1.255,0-2.322,0.784-2.751,1.889h-5.32h-2.566c-0.374,0-0.727,0.194-0.918,0.519l-1.5,2.481l-7.183,11.862
			c-0.423-0.231-0.897-0.377-1.417-0.377c-0.466,0-0.898,0.117-1.292,0.31c-0.697,0.341-1.236,0.943-1.495,1.688
			c-0.105,0.305-0.176,0.627-0.176,0.967c0,1.638,1.326,2.964,2.963,2.964c1.638,0,2.96-1.326,2.96-2.964
			c0-0.273-0.049-0.536-0.116-0.788l7.655-12.655l1.123-1.855h1.962h5.32c0.16,0.416,0.413,0.783,0.733,1.083l-5.391,8.433
			c-0.148-0.022-0.301-0.047-0.458-0.047c-1.635,0-2.962,1.327-2.962,2.963c0,0.61,0.188,1.18,0.504,1.649l-5.896,9.229
			c-0.174-0.031-0.352-0.055-0.531-0.055c-1.636,0-2.962,1.326-2.962,2.963c0,1.275,0.811,2.354,1.941,2.771
			c0.318,0.116,0.658,0.191,1.021,0.191c0.4,0,0.78-0.082,1.128-0.227c1.076-0.443,1.833-1.5,1.833-2.736
			c0-0.671-0.229-1.28-0.604-1.776l5.838-9.14c0.223,0.055,0.452,0.092,0.689,0.092c1.639,0,2.963-1.327,2.963-2.963
			c0-0.695-0.25-1.324-0.647-1.83l5.565-8.714C348.376,20.208,349.694,18.887,349.694,17.256"/>
	</g>
	<g>
		<path fill="#70AABA" stroke="#70AABA" stroke-width="1.2" stroke-linecap="round" stroke-miterlimit="10" d="M215.524,46.054
			c-1.636,0-2.963,1.325-2.963,2.962c0,0.073,0.02,0.146,0.022,0.218c-2.682,2.081-5.312,3.265-9.065,3.265
			c-6.024,0-10.745-4.372-11.787-10.519c0.914-0.505,1.54-1.465,1.54-2.582c0-1.121-0.632-2.086-1.55-2.588
			c1.005-6.137,5.737-10.513,11.797-10.513c3.008,0,5.72,0.942,8.532,2.969c-0.029,0.167-0.052,0.336-0.052,0.512
			c0,1.637,1.323,2.963,2.963,2.963c1.635,0,2.961-1.326,2.961-2.963c0-0.33-0.067-0.646-0.167-0.94
			c-0.243-0.718-0.747-1.306-1.404-1.657c-0.417-0.226-0.887-0.362-1.39-0.362c-0.674,0-1.288,0.231-1.786,0.609
			c-3.145-2.236-6.214-3.273-9.657-3.273c-7.055,0-12.741,5.256-13.917,12.38c-1.293,0.317-2.255,1.477-2.255,2.866
			c0,1.394,0.965,2.555,2.259,2.87c1.182,7.224,6.765,12.377,13.913,12.377c4.154,0,7.139-1.282,10.021-3.442
			c0.525,0.479,1.218,0.775,1.982,0.775c0.569,0,1.098-0.169,1.548-0.446c0.634-0.391,1.102-1.008,1.301-1.74
			c0.066-0.249,0.113-0.505,0.113-0.773C218.486,47.38,217.159,46.054,215.524,46.054"/>
		<path fill="#70AABA" stroke="#70AABA" stroke-miterlimit="10" d="M215.524,46.054c-1.636,0-2.963,1.325-2.963,2.962
			c0,0.073,0.02,0.146,0.022,0.218c-2.682,2.081-5.312,3.265-9.065,3.265c-6.024,0-10.745-4.372-11.787-10.519
			c0.914-0.505,1.54-1.465,1.54-2.582c0-1.121-0.632-2.086-1.55-2.588c1.005-6.137,5.737-10.513,11.797-10.513
			c3.008,0,5.72,0.942,8.532,2.969c-0.029,0.167-0.052,0.336-0.052,0.512c0,1.637,1.323,2.963,2.963,2.963
			c1.635,0,2.961-1.326,2.961-2.963c0-0.33-0.067-0.646-0.167-0.94c-0.243-0.718-0.747-1.306-1.404-1.657
			c-0.417-0.226-0.887-0.362-1.39-0.362c-0.674,0-1.288,0.231-1.786,0.609c-3.145-2.236-6.214-3.273-9.657-3.273
			c-7.055,0-12.741,5.256-13.917,12.38c-1.293,0.317-2.255,1.477-2.255,2.866c0,1.394,0.965,2.555,2.259,2.87
			c1.182,7.224,6.765,12.377,13.913,12.377c4.154,0,7.139-1.282,10.021-3.442c0.525,0.479,1.218,0.775,1.982,0.775
			c0.569,0,1.098-0.169,1.548-0.446c0.634-0.391,1.102-1.008,1.301-1.74c0.066-0.249,0.113-0.505,0.113-0.773
			C218.486,47.38,217.159,46.054,215.524,46.054"/>
	</g>
</g>
</svg>
